<?xml version="1.0" encoding="UTF-8" standalone="no"?>
<!DOCTYPE svg PUBLIC "-//W3C//DTD SVG 1.1//EN"
 "http://www.w3.org/Graphics/SVG/1.1/DTD/svg11.dtd">
<!-- Generated by graphviz version 2.38.0 (20140413.2041)
 -->
<!-- Title: %3 Pages: 1 -->
<svg width="495pt" height="549pt"
 viewBox="0.00 0.00 495.00 549.00" xmlns="http://www.w3.org/2000/svg" xmlns:xlink="http://www.w3.org/1999/xlink">
<g id="graph0" class="graph" transform="scale(1 1) rotate(0) translate(4 545)">
<title>%3</title>
<polygon fill="white" stroke="none" points="-4,4 -4,-545 491,-545 491,4 -4,4"/>
<text text-anchor="middle" x="243.5" y="-522.6" font-family="Times New Roman,serif" font-size="18.00">Self&#45;organizing deep learning polynomial neural network</text>
<text text-anchor="middle" x="243.5" y="-502.6" font-family="Times New Roman,serif" font-size="18.00"> </text>
<!-- OUTPUT -->
<g id="node1" class="node"><title>OUTPUT</title>
<ellipse fill="#ff9c34" stroke="#f89939" cx="63" cy="-18" rx="38.3335" ry="18"/>
<text text-anchor="middle" x="63" y="-14.9" font-family="Times New Roman,serif" font-size="12.00" fill="white">OUTPUT</text>
</g>
<!-- F0 -->
<g id="node2" class="node"><title>F0</title>
<ellipse fill="#ff9c34" stroke="#f89939" cx="135" cy="-400.5" rx="27" ry="18"/>
<text text-anchor="middle" x="135" y="-397.4" font-family="Times New Roman,serif" font-size="12.00" fill="white">F0</text>
</g>
<!-- layer 1
neuron 0
linear cov -->
<g id="node12" class="node"><title>layer 1
neuron 0
linear cov</title>
<polygon fill="#cde8ef" stroke="#cde8ef" points="200,-344 144,-344 144,-303 200,-303 200,-344"/>
<text text-anchor="middle" x="172" y="-332" font-family="Times New Roman,serif" font-size="10.00">layer 1</text>
<text text-anchor="middle" x="172" y="-321" font-family="Times New Roman,serif" font-size="10.00">neuron 0</text>
<text text-anchor="middle" x="172" y="-310" font-family="Times New Roman,serif" font-size="10.00">linear cov</text>
</g>
<!-- F0&#45;&gt;layer 1
neuron 0
linear cov -->
<g id="edge4" class="edge"><title>F0&#45;&gt;layer 1
neuron 0
linear cov</title>
<path fill="none" stroke="#cde8ef" d="M143.028,-383.226C147.357,-374.452 152.826,-363.367 157.843,-353.197"/>
<polygon fill="#3499cd" stroke="#cde8ef" points="160.992,-354.723 162.278,-344.207 154.715,-351.626 160.992,-354.723"/>
</g>
<!-- F1 -->
<g id="node3" class="node"><title>F1</title>
<ellipse fill="#ff9c34" stroke="#f89939" cx="63" cy="-246.5" rx="27" ry="18"/>
<text text-anchor="middle" x="63" y="-243.4" font-family="Times New Roman,serif" font-size="12.00" fill="white">F1</text>
</g>
<!-- layer 3
neuron 0
linear cov -->
<g id="node14" class="node"><title>layer 3
neuron 0
linear cov</title>
<polygon fill="#cde8ef" stroke="#cde8ef" points="128,-190 72,-190 72,-149 128,-149 128,-190"/>
<text text-anchor="middle" x="100" y="-178" font-family="Times New Roman,serif" font-size="10.00">layer 3</text>
<text text-anchor="middle" x="100" y="-167" font-family="Times New Roman,serif" font-size="10.00">neuron 0</text>
<text text-anchor="middle" x="100" y="-156" font-family="Times New Roman,serif" font-size="10.00">linear cov</text>
</g>
<!-- F1&#45;&gt;layer 3
neuron 0
linear cov -->
<g id="edge8" class="edge"><title>F1&#45;&gt;layer 3
neuron 0
linear cov</title>
<path fill="none" stroke="#cde8ef" d="M71.0284,-229.226C75.3569,-220.452 80.8258,-209.367 85.843,-199.197"/>
<polygon fill="#3499cd" stroke="#cde8ef" points="88.9925,-200.723 90.2779,-190.207 82.7148,-197.626 88.9925,-200.723"/>
</g>
<!-- F2 -->
<g id="node4" class="node"><title>F2</title>
<ellipse fill="#ff9c34" stroke="#f89939" cx="316" cy="-475" rx="27" ry="18"/>
<text text-anchor="middle" x="316" y="-471.9" font-family="Times New Roman,serif" font-size="12.00" fill="white">F2</text>
</g>
<!-- F3 -->
<g id="node5" class="node"><title>F3</title>
<ellipse fill="#ff9c34" stroke="#f89939" cx="388" cy="-475" rx="27" ry="18"/>
<text text-anchor="middle" x="388" y="-471.9" font-family="Times New Roman,serif" font-size="12.00" fill="white">F3</text>
</g>
<!-- F4 -->
<g id="node6" class="node"><title>F4</title>
<ellipse fill="#ff9c34" stroke="#f89939" cx="27" cy="-169.5" rx="27" ry="18"/>
<text text-anchor="middle" x="27" y="-166.4" font-family="Times New Roman,serif" font-size="12.00" fill="white">F4</text>
</g>
<!-- layer 4
neuron 0
linear cov -->
<g id="node15" class="node"><title>layer 4
neuron 0
linear cov</title>
<polygon fill="#cde8ef" stroke="#cde8ef" points="91,-113 35,-113 35,-72 91,-72 91,-113"/>
<text text-anchor="middle" x="63" y="-101" font-family="Times New Roman,serif" font-size="10.00">layer 4</text>
<text text-anchor="middle" x="63" y="-90" font-family="Times New Roman,serif" font-size="10.00">neuron 0</text>
<text text-anchor="middle" x="63" y="-79" font-family="Times New Roman,serif" font-size="10.00">linear cov</text>
</g>
<!-- F4&#45;&gt;layer 4
neuron 0
linear cov -->
<g id="edge10" class="edge"><title>F4&#45;&gt;layer 4
neuron 0
linear cov</title>
<path fill="none" stroke="#cde8ef" d="M34.8115,-152.226C38.98,-143.542 44.2355,-132.593 49.076,-122.508"/>
<polygon fill="#3499cd" stroke="#cde8ef" points="52.3687,-123.737 53.5407,-113.207 46.058,-120.708 52.3687,-123.737"/>
</g>
<!-- F5 -->
<g id="node7" class="node"><title>F5</title>
<ellipse fill="#ff9c34" stroke="#f89939" cx="172" cy="-475" rx="27" ry="18"/>
<text text-anchor="middle" x="172" y="-471.9" font-family="Times New Roman,serif" font-size="12.00" fill="white">F5</text>
</g>
<!-- layer 0
neuron 0
linear cov -->
<g id="node11" class="node"><title>layer 0
neuron 0
linear cov</title>
<polygon fill="#cde8ef" stroke="#cde8ef" points="236,-421 180,-421 180,-380 236,-380 236,-421"/>
<text text-anchor="middle" x="208" y="-409" font-family="Times New Roman,serif" font-size="10.00">layer 0</text>
<text text-anchor="middle" x="208" y="-398" font-family="Times New Roman,serif" font-size="10.00">neuron 0</text>
<text text-anchor="middle" x="208" y="-387" font-family="Times New Roman,serif" font-size="10.00">linear cov</text>
</g>
<!-- F5&#45;&gt;layer 0
neuron 0
linear cov -->
<g id="edge1" class="edge"><title>F5&#45;&gt;layer 0
neuron 0
linear cov</title>
<path fill="none" stroke="#cde8ef" d="M180.169,-457.549C184.183,-449.465 189.138,-439.485 193.75,-430.198"/>
<polygon fill="#3499cd" stroke="#cde8ef" points="196.887,-431.751 198.199,-421.238 190.617,-428.638 196.887,-431.751"/>
</g>
<!-- F6 -->
<g id="node8" class="node"><title>F6</title>
<ellipse fill="#ff9c34" stroke="#f89939" cx="99" cy="-323.5" rx="27" ry="18"/>
<text text-anchor="middle" x="99" y="-320.4" font-family="Times New Roman,serif" font-size="12.00" fill="white">F6</text>
</g>
<!-- layer 2
neuron 0
linear cov -->
<g id="node13" class="node"><title>layer 2
neuron 0
linear cov</title>
<polygon fill="#cde8ef" stroke="#cde8ef" points="164,-267 108,-267 108,-226 164,-226 164,-267"/>
<text text-anchor="middle" x="136" y="-255" font-family="Times New Roman,serif" font-size="10.00">layer 2</text>
<text text-anchor="middle" x="136" y="-244" font-family="Times New Roman,serif" font-size="10.00">neuron 0</text>
<text text-anchor="middle" x="136" y="-233" font-family="Times New Roman,serif" font-size="10.00">linear cov</text>
</g>
<!-- F6&#45;&gt;layer 2
neuron 0
linear cov -->
<g id="edge6" class="edge"><title>F6&#45;&gt;layer 2
neuron 0
linear cov</title>
<path fill="none" stroke="#cde8ef" d="M107.028,-306.226C111.357,-297.452 116.826,-286.367 121.843,-276.197"/>
<polygon fill="#3499cd" stroke="#cde8ef" points="124.992,-277.723 126.278,-267.207 118.715,-274.626 124.992,-277.723"/>
</g>
<!-- F7 -->
<g id="node9" class="node"><title>F7</title>
<ellipse fill="#ff9c34" stroke="#f89939" cx="244" cy="-475" rx="27" ry="18"/>
<text text-anchor="middle" x="244" y="-471.9" font-family="Times New Roman,serif" font-size="12.00" fill="white">F7</text>
</g>
<!-- F7&#45;&gt;layer 0
neuron 0
linear cov -->
<g id="edge2" class="edge"><title>F7&#45;&gt;layer 0
neuron 0
linear cov</title>
<path fill="none" stroke="#cde8ef" d="M235.831,-457.549C231.817,-449.465 226.862,-439.485 222.25,-430.198"/>
<polygon fill="#3499cd" stroke="#cde8ef" points="225.383,-428.638 217.801,-421.238 219.113,-431.751 225.383,-428.638"/>
</g>
<!-- F8 -->
<g id="node10" class="node"><title>F8</title>
<ellipse fill="#ff9c34" stroke="#f89939" cx="460" cy="-475" rx="27" ry="18"/>
<text text-anchor="middle" x="460" y="-471.9" font-family="Times New Roman,serif" font-size="12.00" fill="white">F8</text>
</g>
<!-- layer 0
neuron 0
linear cov&#45;&gt;layer 1
neuron 0
linear cov -->
<g id="edge3" class="edge"><title>layer 0
neuron 0
linear cov&#45;&gt;layer 1
neuron 0
linear cov</title>
<path fill="none" stroke="#cde8ef" d="M198.541,-379.795C194.656,-371.699 190.078,-362.163 185.829,-353.311"/>
<polygon fill="#3499cd" stroke="#cde8ef" points="188.878,-351.574 181.395,-344.074 182.567,-354.604 188.878,-351.574"/>
</g>
<!-- layer 1
neuron 0
linear cov&#45;&gt;layer 2
neuron 0
linear cov -->
<g id="edge5" class="edge"><title>layer 1
neuron 0
linear cov&#45;&gt;layer 2
neuron 0
linear cov</title>
<path fill="none" stroke="#cde8ef" d="M162.541,-302.795C158.656,-294.699 154.078,-285.163 149.829,-276.311"/>
<polygon fill="#3499cd" stroke="#cde8ef" points="152.878,-274.574 145.395,-267.074 146.567,-277.604 152.878,-274.574"/>
</g>
<!-- layer 2
neuron 0
linear cov&#45;&gt;layer 3
neuron 0
linear cov -->
<g id="edge7" class="edge"><title>layer 2
neuron 0
linear cov&#45;&gt;layer 3
neuron 0
linear cov</title>
<path fill="none" stroke="#cde8ef" d="M126.541,-225.795C122.656,-217.699 118.078,-208.163 113.829,-199.311"/>
<polygon fill="#3499cd" stroke="#cde8ef" points="116.878,-197.574 109.395,-190.074 110.567,-200.604 116.878,-197.574"/>
</g>
<!-- layer 3
neuron 0
linear cov&#45;&gt;layer 4
neuron 0
linear cov -->
<g id="edge9" class="edge"><title>layer 3
neuron 0
linear cov&#45;&gt;layer 4
neuron 0
linear cov</title>
<path fill="none" stroke="#cde8ef" d="M90.2787,-148.795C86.2849,-140.699 81.5804,-131.163 77.2133,-122.311"/>
<polygon fill="#3499cd" stroke="#cde8ef" points="80.2195,-120.493 72.6564,-113.074 73.9419,-123.59 80.2195,-120.493"/>
</g>
<!-- layer 4
neuron 0
linear cov&#45;&gt;OUTPUT -->
<g id="edge11" class="edge"><title>layer 4
neuron 0
linear cov&#45;&gt;OUTPUT</title>
<path fill="none" stroke="#cde8ef" d="M63,-71.6891C63,-63.9066 63,-54.8417 63,-46.4471"/>
<polygon fill="#3499cd" stroke="#cde8ef" points="66.5001,-46.3194 63,-36.3195 59.5001,-46.3195 66.5001,-46.3194"/>
</g>
</g>
</svg>
