<?xml version="1.0" encoding="UTF-8" standalone="no"?>
<!DOCTYPE svg PUBLIC "-//W3C//DTD SVG 1.1//EN"
 "http://www.w3.org/Graphics/SVG/1.1/DTD/svg11.dtd">
<!-- Generated by graphviz version 2.38.0 (20140413.2041)
 -->
<!-- Title: %3 Pages: 1 -->
<svg width="933pt" height="883pt"
 viewBox="0.00 0.00 933.00 883.25" xmlns="http://www.w3.org/2000/svg" xmlns:xlink="http://www.w3.org/1999/xlink">
<g id="graph0" class="graph" transform="scale(1 1) rotate(0) translate(4 879.25)">
<title>%3</title>
<polygon fill="white" stroke="none" points="-4,4 -4,-879.25 929,-879.25 929,4 -4,4"/>
<text text-anchor="middle" x="462.5" y="-856.85" font-family="Times New Roman,serif" font-size="18.00">Multilayered group method of data handling model</text>
<text text-anchor="middle" x="462.5" y="-836.85" font-family="Times New Roman,serif" font-size="18.00"> </text>
<!-- OUTPUT -->
<g id="node1" class="node"><title>OUTPUT</title>
<ellipse fill="#ff9c34" stroke="#f89939" cx="139" cy="-18" rx="38.3335" ry="18"/>
<text text-anchor="middle" x="139" y="-14.9" font-family="Times New Roman,serif" font-size="12.00" fill="white">OUTPUT</text>
</g>
<!-- F0
CRIM -->
<g id="node2" class="node"><title>F0
CRIM</title>
<ellipse fill="#ff9c34" stroke="#f89939" cx="97" cy="-481.042" rx="33.4697" ry="24.0833"/>
<text text-anchor="middle" x="97" y="-484.442" font-family="Times New Roman,serif" font-size="12.00" fill="white">F0</text>
<text text-anchor="middle" x="97" y="-471.442" font-family="Times New Roman,serif" font-size="12.00" fill="white">CRIM</text>
</g>
<!-- layer 4
model 3
linear cov -->
<g id="node29" class="node"><title>layer 4
model 3
linear cov</title>
<polygon fill="#cde8ef" stroke="#cde8ef" points="181,-421 125,-421 125,-380 181,-380 181,-421"/>
<text text-anchor="middle" x="153" y="-409" font-family="Times New Roman,serif" font-size="10.00">layer 4</text>
<text text-anchor="middle" x="153" y="-398" font-family="Times New Roman,serif" font-size="10.00">model 3</text>
<text text-anchor="middle" x="153" y="-387" font-family="Times New Roman,serif" font-size="10.00">linear cov</text>
</g>
<!-- F0
CRIM&#45;&gt;layer 4
model 3
linear cov -->
<g id="edge30" class="edge"><title>F0
CRIM&#45;&gt;layer 4
model 3
linear cov</title>
<path fill="none" stroke="#cde8ef" d="M111.713,-459.406C118.23,-450.266 125.997,-439.373 133.026,-429.514"/>
<polygon fill="#3499cd" stroke="#cde8ef" points="136.008,-431.361 138.964,-421.186 130.308,-427.297 136.008,-431.361"/>
</g>
<!-- layer 5
model 2
linear cov -->
<g id="node32" class="node"><title>layer 5
model 2
linear cov</title>
<polygon fill="#cde8ef" stroke="#cde8ef" points="130,-344 74,-344 74,-303 130,-303 130,-344"/>
<text text-anchor="middle" x="102" y="-332" font-family="Times New Roman,serif" font-size="10.00">layer 5</text>
<text text-anchor="middle" x="102" y="-321" font-family="Times New Roman,serif" font-size="10.00">model 2</text>
<text text-anchor="middle" x="102" y="-310" font-family="Times New Roman,serif" font-size="10.00">linear cov</text>
</g>
<!-- F0
CRIM&#45;&gt;layer 5
model 2
linear cov -->
<g id="edge36" class="edge"><title>F0
CRIM&#45;&gt;layer 5
model 2
linear cov</title>
<path fill="none" stroke="#cde8ef" d="M97.7486,-456.755C98.6269,-429.432 100.085,-384.078 101.044,-354.235"/>
<polygon fill="#3499cd" stroke="#cde8ef" points="104.55,-354.111 101.373,-344.004 97.5535,-353.886 104.55,-354.111"/>
</g>
<!-- F1
ZN -->
<g id="node3" class="node"><title>F1
ZN</title>
<ellipse fill="#ff9c34" stroke="#f89939" cx="495" cy="-803.208" rx="27" ry="24.0833"/>
<text text-anchor="middle" x="495" y="-806.608" font-family="Times New Roman,serif" font-size="12.00" fill="white">F1</text>
<text text-anchor="middle" x="495" y="-793.608" font-family="Times New Roman,serif" font-size="12.00" fill="white">ZN</text>
</g>
<!-- F2
INDUS -->
<g id="node4" class="node"><title>F2
INDUS</title>
<ellipse fill="#ff9c34" stroke="#f89939" cx="577" cy="-803.208" rx="37.4533" ry="24.0833"/>
<text text-anchor="middle" x="577" y="-806.608" font-family="Times New Roman,serif" font-size="12.00" fill="white">F2</text>
<text text-anchor="middle" x="577" y="-793.608" font-family="Times New Roman,serif" font-size="12.00" fill="white">INDUS</text>
</g>
<!-- F3
CHAS -->
<g id="node5" class="node"><title>F3
CHAS</title>
<ellipse fill="#ff9c34" stroke="#f89939" cx="666" cy="-803.208" rx="33.8824" ry="24.0833"/>
<text text-anchor="middle" x="666" y="-806.608" font-family="Times New Roman,serif" font-size="12.00" fill="white">F3</text>
<text text-anchor="middle" x="666" y="-793.608" font-family="Times New Roman,serif" font-size="12.00" fill="white">CHAS</text>
</g>
<!-- F4
NOX -->
<g id="node6" class="node"><title>F4
NOX</title>
<ellipse fill="#ff9c34" stroke="#f89939" cx="748" cy="-803.208" rx="30.3115" ry="24.0833"/>
<text text-anchor="middle" x="748" y="-806.608" font-family="Times New Roman,serif" font-size="12.00" fill="white">F4</text>
<text text-anchor="middle" x="748" y="-793.608" font-family="Times New Roman,serif" font-size="12.00" fill="white">NOX</text>
</g>
<!-- F5
RM -->
<g id="node7" class="node"><title>F5
RM</title>
<ellipse fill="#ff9c34" stroke="#f89939" cx="216" cy="-803.208" rx="27" ry="24.0833"/>
<text text-anchor="middle" x="216" y="-806.608" font-family="Times New Roman,serif" font-size="12.00" fill="white">F5</text>
<text text-anchor="middle" x="216" y="-793.608" font-family="Times New Roman,serif" font-size="12.00" fill="white">RM</text>
</g>
<!-- layer 0
model 0
linear cov -->
<g id="node15" class="node"><title>layer 0
model 0
linear cov</title>
<polygon fill="#cde8ef" stroke="#cde8ef" points="302,-743.167 246,-743.167 246,-702.167 302,-702.167 302,-743.167"/>
<text text-anchor="middle" x="274" y="-731.167" font-family="Times New Roman,serif" font-size="10.00">layer 0</text>
<text text-anchor="middle" x="274" y="-720.167" font-family="Times New Roman,serif" font-size="10.00">model 0</text>
<text text-anchor="middle" x="274" y="-709.167" font-family="Times New Roman,serif" font-size="10.00">linear cov</text>
</g>
<!-- F5
RM&#45;&gt;layer 0
model 0
linear cov -->
<g id="edge1" class="edge"><title>F5
RM&#45;&gt;layer 0
model 0
linear cov</title>
<path fill="none" stroke="#cde8ef" d="M230.337,-782.793C237.256,-773.424 245.686,-762.009 253.287,-751.716"/>
<polygon fill="#3499cd" stroke="#cde8ef" points="256.3,-753.527 259.425,-743.404 250.669,-749.369 256.3,-753.527"/>
</g>
<!-- layer 0
model 3
linear cov -->
<g id="node18" class="node"><title>layer 0
model 3
linear cov</title>
<polygon fill="#cde8ef" stroke="#cde8ef" points="116,-743.167 60,-743.167 60,-702.167 116,-702.167 116,-743.167"/>
<text text-anchor="middle" x="88" y="-731.167" font-family="Times New Roman,serif" font-size="10.00">layer 0</text>
<text text-anchor="middle" x="88" y="-720.167" font-family="Times New Roman,serif" font-size="10.00">model 3</text>
<text text-anchor="middle" x="88" y="-709.167" font-family="Times New Roman,serif" font-size="10.00">linear cov</text>
</g>
<!-- F5
RM&#45;&gt;layer 0
model 3
linear cov -->
<g id="edge7" class="edge"><title>F5
RM&#45;&gt;layer 0
model 3
linear cov</title>
<path fill="none" stroke="#cde8ef" d="M194.357,-788.224C189.639,-785.213 184.664,-782.065 180,-779.167 162.088,-768.034 142.052,-755.909 125.263,-745.84"/>
<polygon fill="#3499cd" stroke="#cde8ef" points="126.681,-742.61 116.304,-740.477 123.086,-748.616 126.681,-742.61"/>
</g>
<!-- F6
AGE -->
<g id="node8" class="node"><title>F6
AGE</title>
<ellipse fill="#ff9c34" stroke="#f89939" cx="825" cy="-803.208" rx="28.0702" ry="24.0833"/>
<text text-anchor="middle" x="825" y="-806.608" font-family="Times New Roman,serif" font-size="12.00" fill="white">F6</text>
<text text-anchor="middle" x="825" y="-793.608" font-family="Times New Roman,serif" font-size="12.00" fill="white">AGE</text>
</g>
<!-- F7
DIS -->
<g id="node9" class="node"><title>F7
DIS</title>
<ellipse fill="#ff9c34" stroke="#f89939" cx="144" cy="-803.208" rx="27" ry="24.0833"/>
<text text-anchor="middle" x="144" y="-806.608" font-family="Times New Roman,serif" font-size="12.00" fill="white">F7</text>
<text text-anchor="middle" x="144" y="-793.608" font-family="Times New Roman,serif" font-size="12.00" fill="white">DIS</text>
</g>
<!-- layer 0
model 2
linear cov -->
<g id="node17" class="node"><title>layer 0
model 2
linear cov</title>
<polygon fill="#cde8ef" stroke="#cde8ef" points="228,-743.167 172,-743.167 172,-702.167 228,-702.167 228,-743.167"/>
<text text-anchor="middle" x="200" y="-731.167" font-family="Times New Roman,serif" font-size="10.00">layer 0</text>
<text text-anchor="middle" x="200" y="-720.167" font-family="Times New Roman,serif" font-size="10.00">model 2</text>
<text text-anchor="middle" x="200" y="-709.167" font-family="Times New Roman,serif" font-size="10.00">linear cov</text>
</g>
<!-- F7
DIS&#45;&gt;layer 0
model 2
linear cov -->
<g id="edge5" class="edge"><title>F7
DIS&#45;&gt;layer 0
model 2
linear cov</title>
<path fill="none" stroke="#cde8ef" d="M158.131,-782.389C164.814,-773.016 172.907,-761.665 180.189,-751.451"/>
<polygon fill="#3499cd" stroke="#cde8ef" points="183.112,-753.382 186.067,-743.207 177.412,-749.318 183.112,-753.382"/>
</g>
<!-- layer 3
model 1
linear cov -->
<g id="node25" class="node"><title>layer 3
model 1
linear cov</title>
<polygon fill="#cde8ef" stroke="#cde8ef" points="278,-501.542 222,-501.542 222,-460.542 278,-460.542 278,-501.542"/>
<text text-anchor="middle" x="250" y="-489.542" font-family="Times New Roman,serif" font-size="10.00">layer 3</text>
<text text-anchor="middle" x="250" y="-478.542" font-family="Times New Roman,serif" font-size="10.00">model 1</text>
<text text-anchor="middle" x="250" y="-467.542" font-family="Times New Roman,serif" font-size="10.00">linear cov</text>
</g>
<!-- F7
DIS&#45;&gt;layer 3
model 1
linear cov -->
<g id="edge22" class="edge"><title>F7
DIS&#45;&gt;layer 3
model 1
linear cov</title>
<path fill="none" stroke="#cde8ef" d="M143.019,-779.083C142.244,-743.453 143.669,-673.454 163,-618.083 177.342,-577.004 206.271,-535.731 226.829,-509.599"/>
<polygon fill="#3499cd" stroke="#cde8ef" points="229.662,-511.66 233.18,-501.666 224.198,-507.285 229.662,-511.66"/>
</g>
<!-- layer 4
model 1
linear cov -->
<g id="node27" class="node"><title>layer 4
model 1
linear cov</title>
<polygon fill="#cde8ef" stroke="#cde8ef" points="62,-421 6,-421 6,-380 62,-380 62,-421"/>
<text text-anchor="middle" x="34" y="-409" font-family="Times New Roman,serif" font-size="10.00">layer 4</text>
<text text-anchor="middle" x="34" y="-398" font-family="Times New Roman,serif" font-size="10.00">model 1</text>
<text text-anchor="middle" x="34" y="-387" font-family="Times New Roman,serif" font-size="10.00">linear cov</text>
</g>
<!-- F7
DIS&#45;&gt;layer 4
model 1
linear cov -->
<g id="edge26" class="edge"><title>F7
DIS&#45;&gt;layer 4
model 1
linear cov</title>
<path fill="none" stroke="#cde8ef" d="M122.312,-788.297C117.597,-785.281 112.634,-782.113 108,-779.167 82.715,-763.09 67.8585,-767.937 51,-743.167 25.5359,-705.752 32,-688.383 32,-643.125 32,-643.125 32,-643.125 32,-560.583 32,-515.419 32.816,-463.048 33.4055,-431.102"/>
<polygon fill="#3499cd" stroke="#cde8ef" points="36.905,-431.156 33.5953,-421.092 29.9063,-431.023 36.905,-431.156"/>
</g>
<!-- F8
RAD -->
<g id="node10" class="node"><title>F8
RAD</title>
<ellipse fill="#ff9c34" stroke="#f89939" cx="275" cy="-642.125" rx="28.9828" ry="24.0833"/>
<text text-anchor="middle" x="275" y="-645.525" font-family="Times New Roman,serif" font-size="12.00" fill="white">F8</text>
<text text-anchor="middle" x="275" y="-632.525" font-family="Times New Roman,serif" font-size="12.00" fill="white">RAD</text>
</g>
<!-- layer 2
model 0
linear cov -->
<g id="node22" class="node"><title>layer 2
model 0
linear cov</title>
<polygon fill="#cde8ef" stroke="#cde8ef" points="303,-582.083 247,-582.083 247,-541.083 303,-541.083 303,-582.083"/>
<text text-anchor="middle" x="275" y="-570.083" font-family="Times New Roman,serif" font-size="10.00">layer 2</text>
<text text-anchor="middle" x="275" y="-559.083" font-family="Times New Roman,serif" font-size="10.00">model 0</text>
<text text-anchor="middle" x="275" y="-548.083" font-family="Times New Roman,serif" font-size="10.00">linear cov</text>
</g>
<!-- F8
RAD&#45;&gt;layer 2
model 0
linear cov -->
<g id="edge16" class="edge"><title>F8
RAD&#45;&gt;layer 2
model 0
linear cov</title>
<path fill="none" stroke="#cde8ef" d="M275,-617.985C275,-609.967 275,-600.864 275,-592.386"/>
<polygon fill="#3499cd" stroke="#cde8ef" points="278.5,-592.112 275,-582.112 271.5,-592.112 278.5,-592.112"/>
</g>
<!-- layer 3
model 0
linear cov -->
<g id="node24" class="node"><title>layer 3
model 0
linear cov</title>
<polygon fill="#cde8ef" stroke="#cde8ef" points="204,-501.542 148,-501.542 148,-460.542 204,-460.542 204,-501.542"/>
<text text-anchor="middle" x="176" y="-489.542" font-family="Times New Roman,serif" font-size="10.00">layer 3</text>
<text text-anchor="middle" x="176" y="-478.542" font-family="Times New Roman,serif" font-size="10.00">model 0</text>
<text text-anchor="middle" x="176" y="-467.542" font-family="Times New Roman,serif" font-size="10.00">linear cov</text>
</g>
<!-- F8
RAD&#45;&gt;layer 3
model 0
linear cov -->
<g id="edge20" class="edge"><title>F8
RAD&#45;&gt;layer 3
model 0
linear cov</title>
<path fill="none" stroke="#cde8ef" d="M261.961,-620.374C254.862,-609.064 245.934,-594.813 238,-582.083 222.911,-557.872 205.839,-530.313 193.436,-510.259"/>
<polygon fill="#3499cd" stroke="#cde8ef" points="196.325,-508.277 188.089,-501.613 190.371,-511.959 196.325,-508.277"/>
</g>
<!-- F9
TAX -->
<g id="node11" class="node"><title>F9
TAX</title>
<ellipse fill="#ff9c34" stroke="#f89939" cx="71" cy="-803.208" rx="28.0702" ry="24.0833"/>
<text text-anchor="middle" x="71" y="-806.608" font-family="Times New Roman,serif" font-size="12.00" fill="white">F9</text>
<text text-anchor="middle" x="71" y="-793.608" font-family="Times New Roman,serif" font-size="12.00" fill="white">TAX</text>
</g>
<!-- F9
TAX&#45;&gt;layer 0
model 3
linear cov -->
<g id="edge8" class="edge"><title>F9
TAX&#45;&gt;layer 0
model 3
linear cov</title>
<path fill="none" stroke="#cde8ef" d="M75.9171,-779.491C77.6932,-771.285 79.7249,-761.898 81.6089,-753.194"/>
<polygon fill="#3499cd" stroke="#cde8ef" points="85.0339,-753.914 83.7287,-743.4 78.1924,-752.434 85.0339,-753.914"/>
</g>
<!-- F10
PTRATIO -->
<g id="node12" class="node"><title>F10
PTRATIO</title>
<ellipse fill="#ff9c34" stroke="#f89939" cx="404" cy="-803.208" rx="45.9239" ry="24.0833"/>
<text text-anchor="middle" x="404" y="-806.608" font-family="Times New Roman,serif" font-size="12.00" fill="white">F10</text>
<text text-anchor="middle" x="404" y="-793.608" font-family="Times New Roman,serif" font-size="12.00" fill="white">PTRATIO</text>
</g>
<!-- layer 0
model 1
linear cov -->
<g id="node16" class="node"><title>layer 0
model 1
linear cov</title>
<polygon fill="#cde8ef" stroke="#cde8ef" points="376,-743.167 320,-743.167 320,-702.167 376,-702.167 376,-743.167"/>
<text text-anchor="middle" x="348" y="-731.167" font-family="Times New Roman,serif" font-size="10.00">layer 0</text>
<text text-anchor="middle" x="348" y="-720.167" font-family="Times New Roman,serif" font-size="10.00">model 1</text>
<text text-anchor="middle" x="348" y="-709.167" font-family="Times New Roman,serif" font-size="10.00">linear cov</text>
</g>
<!-- F10
PTRATIO&#45;&gt;layer 0
model 1
linear cov -->
<g id="edge3" class="edge"><title>F10
PTRATIO&#45;&gt;layer 0
model 1
linear cov</title>
<path fill="none" stroke="#cde8ef" d="M388.401,-780.33C382.058,-771.433 374.65,-761.045 367.923,-751.61"/>
<polygon fill="#3499cd" stroke="#cde8ef" points="370.642,-749.394 361.987,-743.283 364.942,-753.458 370.642,-749.394"/>
</g>
<!-- layer 1
model 1
linear cov -->
<g id="node20" class="node"><title>layer 1
model 1
linear cov</title>
<polygon fill="#cde8ef" stroke="#cde8ef" points="228,-662.625 172,-662.625 172,-621.625 228,-621.625 228,-662.625"/>
<text text-anchor="middle" x="200" y="-650.625" font-family="Times New Roman,serif" font-size="10.00">layer 1</text>
<text text-anchor="middle" x="200" y="-639.625" font-family="Times New Roman,serif" font-size="10.00">model 1</text>
<text text-anchor="middle" x="200" y="-628.625" font-family="Times New Roman,serif" font-size="10.00">linear cov</text>
</g>
<!-- F10
PTRATIO&#45;&gt;layer 1
model 1
linear cov -->
<g id="edge12" class="edge"><title>F10
PTRATIO&#45;&gt;layer 1
model 1
linear cov</title>
<path fill="none" stroke="#cde8ef" d="M406.224,-778.78C407.004,-756.199 404.364,-722.542 385,-702.167 340.461,-655.3 302.925,-689.039 237.602,-665.626"/>
<polygon fill="#3499cd" stroke="#cde8ef" points="238.784,-662.33 228.196,-661.928 236.223,-668.844 238.784,-662.33"/>
</g>
<!-- layer 4
model 2
linear cov -->
<g id="node28" class="node"><title>layer 4
model 2
linear cov</title>
<polygon fill="#cde8ef" stroke="#cde8ef" points="329,-421 273,-421 273,-380 329,-380 329,-421"/>
<text text-anchor="middle" x="301" y="-409" font-family="Times New Roman,serif" font-size="10.00">layer 4</text>
<text text-anchor="middle" x="301" y="-398" font-family="Times New Roman,serif" font-size="10.00">model 2</text>
<text text-anchor="middle" x="301" y="-387" font-family="Times New Roman,serif" font-size="10.00">linear cov</text>
</g>
<!-- F10
PTRATIO&#45;&gt;layer 4
model 2
linear cov -->
<g id="edge28" class="edge"><title>F10
PTRATIO&#45;&gt;layer 4
model 2
linear cov</title>
<path fill="none" stroke="#cde8ef" d="M413.005,-779.432C424.243,-748.911 442,-692.817 442,-643.125 442,-643.125 442,-643.125 442,-560.583 442,-497.703 379.543,-448.056 337.766,-421.88"/>
<polygon fill="#3499cd" stroke="#cde8ef" points="339.555,-418.872 329.195,-416.655 335.911,-424.849 339.555,-418.872"/>
</g>
<!-- F11
B -->
<g id="node13" class="node"><title>F11
B</title>
<ellipse fill="#ff9c34" stroke="#f89939" cx="898" cy="-803.208" rx="27" ry="24.0833"/>
<text text-anchor="middle" x="898" y="-806.608" font-family="Times New Roman,serif" font-size="12.00" fill="white">F11</text>
<text text-anchor="middle" x="898" y="-793.608" font-family="Times New Roman,serif" font-size="12.00" fill="white">B</text>
</g>
<!-- F12
LSTAT -->
<g id="node14" class="node"><title>F12
LSTAT</title>
<ellipse fill="#ff9c34" stroke="#f89939" cx="298" cy="-803.208" rx="36.5405" ry="24.0833"/>
<text text-anchor="middle" x="298" y="-806.608" font-family="Times New Roman,serif" font-size="12.00" fill="white">F12</text>
<text text-anchor="middle" x="298" y="-793.608" font-family="Times New Roman,serif" font-size="12.00" fill="white">LSTAT</text>
</g>
<!-- F12
LSTAT&#45;&gt;layer 0
model 0
linear cov -->
<g id="edge2" class="edge"><title>F12
LSTAT&#45;&gt;layer 0
model 0
linear cov</title>
<path fill="none" stroke="#cde8ef" d="M291.058,-779.491C288.551,-771.285 285.683,-761.898 283.023,-753.194"/>
<polygon fill="#3499cd" stroke="#cde8ef" points="286.3,-751.941 280.03,-743.4 279.605,-753.987 286.3,-751.941"/>
</g>
<!-- F12
LSTAT&#45;&gt;layer 0
model 1
linear cov -->
<g id="edge4" class="edge"><title>F12
LSTAT&#45;&gt;layer 0
model 1
linear cov</title>
<path fill="none" stroke="#cde8ef" d="M311.663,-780.746C317.374,-771.775 324.087,-761.229 330.179,-751.66"/>
<polygon fill="#3499cd" stroke="#cde8ef" points="333.134,-753.535 335.552,-743.22 327.229,-749.776 333.134,-753.535"/>
</g>
<!-- F12
LSTAT&#45;&gt;layer 0
model 2
linear cov -->
<g id="edge6" class="edge"><title>F12
LSTAT&#45;&gt;layer 0
model 2
linear cov</title>
<path fill="none" stroke="#cde8ef" d="M275.271,-783.992C262.603,-773.839 246.61,-761.022 232.627,-749.815"/>
<polygon fill="#3499cd" stroke="#cde8ef" points="234.658,-746.958 224.666,-743.435 230.281,-752.42 234.658,-746.958"/>
</g>
<!-- layer 0
model 0
linear cov&#45;&gt;layer 1
model 1
linear cov -->
<g id="edge11" class="edge"><title>layer 0
model 0
linear cov&#45;&gt;layer 1
model 1
linear cov</title>
<path fill="none" stroke="#cde8ef" d="M255.327,-701.847C246.231,-692.193 235.158,-680.441 225.315,-669.994"/>
<polygon fill="#3499cd" stroke="#cde8ef" points="227.816,-667.544 218.411,-662.666 222.721,-672.344 227.816,-667.544"/>
</g>
<!-- layer 1
model 2
linear cov -->
<g id="node21" class="node"><title>layer 1
model 2
linear cov</title>
<polygon fill="#cde8ef" stroke="#cde8ef" points="378,-662.625 322,-662.625 322,-621.625 378,-621.625 378,-662.625"/>
<text text-anchor="middle" x="350" y="-650.625" font-family="Times New Roman,serif" font-size="10.00">layer 1</text>
<text text-anchor="middle" x="350" y="-639.625" font-family="Times New Roman,serif" font-size="10.00">model 2</text>
<text text-anchor="middle" x="350" y="-628.625" font-family="Times New Roman,serif" font-size="10.00">linear cov</text>
</g>
<!-- layer 0
model 0
linear cov&#45;&gt;layer 1
model 2
linear cov -->
<g id="edge13" class="edge"><title>layer 0
model 0
linear cov&#45;&gt;layer 1
model 2
linear cov</title>
<path fill="none" stroke="#cde8ef" d="M293.178,-701.847C302.52,-692.193 313.891,-680.441 324.001,-669.994"/>
<polygon fill="#3499cd" stroke="#cde8ef" points="326.653,-672.286 331.091,-662.666 321.622,-667.418 326.653,-672.286"/>
</g>
<!-- layer 0
model 1
linear cov&#45;&gt;layer 1
model 2
linear cov -->
<g id="edge14" class="edge"><title>layer 0
model 1
linear cov&#45;&gt;layer 1
model 2
linear cov</title>
<path fill="none" stroke="#cde8ef" d="M348.505,-701.847C348.729,-693.037 348.998,-682.479 349.245,-672.76"/>
<polygon fill="#3499cd" stroke="#cde8ef" points="352.747,-672.752 349.502,-662.666 345.749,-672.573 352.747,-672.752"/>
</g>
<!-- layer 1
model 0
linear cov -->
<g id="node19" class="node"><title>layer 1
model 0
linear cov</title>
<polygon fill="#cde8ef" stroke="#cde8ef" points="116,-662.625 60,-662.625 60,-621.625 116,-621.625 116,-662.625"/>
<text text-anchor="middle" x="88" y="-650.625" font-family="Times New Roman,serif" font-size="10.00">layer 1</text>
<text text-anchor="middle" x="88" y="-639.625" font-family="Times New Roman,serif" font-size="10.00">model 0</text>
<text text-anchor="middle" x="88" y="-628.625" font-family="Times New Roman,serif" font-size="10.00">linear cov</text>
</g>
<!-- layer 0
model 2
linear cov&#45;&gt;layer 1
model 0
linear cov -->
<g id="edge9" class="edge"><title>layer 0
model 2
linear cov&#45;&gt;layer 1
model 0
linear cov</title>
<path fill="none" stroke="#cde8ef" d="M172.027,-702.05C157.594,-691.929 139.815,-679.461 124.334,-668.604"/>
<polygon fill="#3499cd" stroke="#cde8ef" points="126.202,-665.64 116.005,-662.764 122.183,-671.371 126.202,-665.64"/>
</g>
<!-- layer 0
model 3
linear cov&#45;&gt;layer 1
model 0
linear cov -->
<g id="edge10" class="edge"><title>layer 0
model 3
linear cov&#45;&gt;layer 1
model 0
linear cov</title>
<path fill="none" stroke="#cde8ef" d="M88,-701.847C88,-693.037 88,-682.479 88,-672.76"/>
<polygon fill="#3499cd" stroke="#cde8ef" points="91.5001,-672.666 88,-662.666 84.5001,-672.666 91.5001,-672.666"/>
</g>
<!-- layer 2
model 1
linear cov -->
<g id="node23" class="node"><title>layer 2
model 1
linear cov</title>
<polygon fill="#cde8ef" stroke="#cde8ef" points="116,-582.083 60,-582.083 60,-541.083 116,-541.083 116,-582.083"/>
<text text-anchor="middle" x="88" y="-570.083" font-family="Times New Roman,serif" font-size="10.00">layer 2</text>
<text text-anchor="middle" x="88" y="-559.083" font-family="Times New Roman,serif" font-size="10.00">model 1</text>
<text text-anchor="middle" x="88" y="-548.083" font-family="Times New Roman,serif" font-size="10.00">linear cov</text>
</g>
<!-- layer 1
model 0
linear cov&#45;&gt;layer 2
model 1
linear cov -->
<g id="edge17" class="edge"><title>layer 1
model 0
linear cov&#45;&gt;layer 2
model 1
linear cov</title>
<path fill="none" stroke="#cde8ef" d="M88,-621.306C88,-612.495 88,-601.937 88,-592.218"/>
<polygon fill="#3499cd" stroke="#cde8ef" points="91.5001,-592.124 88,-582.124 84.5001,-592.124 91.5001,-592.124"/>
</g>
<!-- layer 1
model 1
linear cov&#45;&gt;layer 2
model 1
linear cov -->
<g id="edge18" class="edge"><title>layer 1
model 1
linear cov&#45;&gt;layer 2
model 1
linear cov</title>
<path fill="none" stroke="#cde8ef" d="M172.027,-621.508C157.594,-611.387 139.815,-598.92 124.334,-588.063"/>
<polygon fill="#3499cd" stroke="#cde8ef" points="126.202,-585.098 116.005,-582.222 122.183,-590.829 126.202,-585.098"/>
</g>
<!-- layer 1
model 2
linear cov&#45;&gt;layer 2
model 0
linear cov -->
<g id="edge15" class="edge"><title>layer 1
model 2
linear cov&#45;&gt;layer 2
model 0
linear cov</title>
<path fill="none" stroke="#cde8ef" d="M331.074,-621.306C321.856,-611.652 310.633,-599.899 300.657,-589.452"/>
<polygon fill="#3499cd" stroke="#cde8ef" points="303.097,-586.939 293.66,-582.124 298.035,-591.774 303.097,-586.939"/>
</g>
<!-- layer 2
model 0
linear cov&#45;&gt;layer 3
model 1
linear cov -->
<g id="edge21" class="edge"><title>layer 2
model 0
linear cov&#45;&gt;layer 3
model 1
linear cov</title>
<path fill="none" stroke="#cde8ef" d="M268.691,-540.764C265.857,-531.86 262.455,-521.171 259.334,-511.367"/>
<polygon fill="#3499cd" stroke="#cde8ef" points="262.588,-510.05 256.22,-501.583 255.918,-512.173 262.588,-510.05"/>
</g>
<!-- layer 2
model 1
linear cov&#45;&gt;layer 3
model 0
linear cov -->
<g id="edge19" class="edge"><title>layer 2
model 1
linear cov&#45;&gt;layer 3
model 0
linear cov</title>
<path fill="none" stroke="#cde8ef" d="M110.206,-540.764C121.233,-530.922 134.702,-518.901 146.576,-508.303"/>
<polygon fill="#3499cd" stroke="#cde8ef" points="148.976,-510.853 154.106,-501.583 144.315,-505.63 148.976,-510.853"/>
</g>
<!-- layer 4
model 0
linear cov -->
<g id="node26" class="node"><title>layer 4
model 0
linear cov</title>
<polygon fill="#cde8ef" stroke="#cde8ef" points="255,-421 199,-421 199,-380 255,-380 255,-421"/>
<text text-anchor="middle" x="227" y="-409" font-family="Times New Roman,serif" font-size="10.00">layer 4</text>
<text text-anchor="middle" x="227" y="-398" font-family="Times New Roman,serif" font-size="10.00">model 0</text>
<text text-anchor="middle" x="227" y="-387" font-family="Times New Roman,serif" font-size="10.00">linear cov</text>
</g>
<!-- layer 3
model 0
linear cov&#45;&gt;layer 4
model 0
linear cov -->
<g id="edge23" class="edge"><title>layer 3
model 0
linear cov&#45;&gt;layer 4
model 0
linear cov</title>
<path fill="none" stroke="#cde8ef" d="M188.869,-460.222C194.895,-450.943 202.179,-439.726 208.759,-429.592"/>
<polygon fill="#3499cd" stroke="#cde8ef" points="211.801,-431.334 214.311,-421.041 205.93,-427.522 211.801,-431.334"/>
</g>
<!-- layer 3
model 0
linear cov&#45;&gt;layer 4
model 1
linear cov -->
<g id="edge25" class="edge"><title>layer 3
model 0
linear cov&#45;&gt;layer 4
model 1
linear cov</title>
<path fill="none" stroke="#cde8ef" d="M147.843,-462.221C144.874,-460.429 141.887,-458.659 139,-457 116.831,-444.259 91.5015,-430.839 71.2753,-420.387"/>
<polygon fill="#3499cd" stroke="#cde8ef" points="72.8645,-417.269 62.371,-415.807 69.6625,-423.493 72.8645,-417.269"/>
</g>
<!-- layer 3
model 0
linear cov&#45;&gt;layer 4
model 2
linear cov -->
<g id="edge27" class="edge"><title>layer 3
model 0
linear cov&#45;&gt;layer 4
model 2
linear cov</title>
<path fill="none" stroke="#cde8ef" d="M204.052,-462.415C221.78,-451.277 244.885,-436.759 264.091,-424.691"/>
<polygon fill="#3499cd" stroke="#cde8ef" points="266.004,-427.623 272.609,-419.339 262.279,-421.696 266.004,-427.623"/>
</g>
<!-- layer 3
model 0
linear cov&#45;&gt;layer 4
model 3
linear cov -->
<g id="edge29" class="edge"><title>layer 3
model 0
linear cov&#45;&gt;layer 4
model 3
linear cov</title>
<path fill="none" stroke="#cde8ef" d="M170.196,-460.222C167.589,-451.318 164.458,-440.629 161.588,-430.825"/>
<polygon fill="#3499cd" stroke="#cde8ef" points="164.892,-429.654 158.722,-421.041 158.174,-431.622 164.892,-429.654"/>
</g>
<!-- layer 3
model 1
linear cov&#45;&gt;layer 4
model 0
linear cov -->
<g id="edge24" class="edge"><title>layer 3
model 1
linear cov&#45;&gt;layer 4
model 0
linear cov</title>
<path fill="none" stroke="#cde8ef" d="M244.196,-460.222C241.589,-451.318 238.458,-440.629 235.588,-430.825"/>
<polygon fill="#3499cd" stroke="#cde8ef" points="238.892,-429.654 232.722,-421.041 232.174,-431.622 238.892,-429.654"/>
</g>
<!-- layer 5
model 1
linear cov -->
<g id="node31" class="node"><title>layer 5
model 1
linear cov</title>
<polygon fill="#cde8ef" stroke="#cde8ef" points="204,-344 148,-344 148,-303 204,-303 204,-344"/>
<text text-anchor="middle" x="176" y="-332" font-family="Times New Roman,serif" font-size="10.00">layer 5</text>
<text text-anchor="middle" x="176" y="-321" font-family="Times New Roman,serif" font-size="10.00">model 1</text>
<text text-anchor="middle" x="176" y="-310" font-family="Times New Roman,serif" font-size="10.00">linear cov</text>
</g>
<!-- layer 4
model 0
linear cov&#45;&gt;layer 5
model 1
linear cov -->
<g id="edge33" class="edge"><title>layer 4
model 0
linear cov&#45;&gt;layer 5
model 1
linear cov</title>
<path fill="none" stroke="#cde8ef" d="M213.6,-379.795C207.92,-371.441 201.196,-361.553 195.016,-352.465"/>
<polygon fill="#3499cd" stroke="#cde8ef" points="197.828,-350.375 189.31,-344.074 192.039,-354.311 197.828,-350.375"/>
</g>
<!-- layer 5
model 0
linear cov -->
<g id="node30" class="node"><title>layer 5
model 0
linear cov</title>
<polygon fill="#cde8ef" stroke="#cde8ef" points="56,-344 3.55271e-015,-344 3.55271e-015,-303 56,-303 56,-344"/>
<text text-anchor="middle" x="28" y="-332" font-family="Times New Roman,serif" font-size="10.00">layer 5</text>
<text text-anchor="middle" x="28" y="-321" font-family="Times New Roman,serif" font-size="10.00">model 0</text>
<text text-anchor="middle" x="28" y="-310" font-family="Times New Roman,serif" font-size="10.00">linear cov</text>
</g>
<!-- layer 4
model 1
linear cov&#45;&gt;layer 5
model 0
linear cov -->
<g id="edge31" class="edge"><title>layer 4
model 1
linear cov&#45;&gt;layer 5
model 0
linear cov</title>
<path fill="none" stroke="#cde8ef" d="M32.4236,-379.795C31.7966,-371.957 31.0616,-362.77 30.3728,-354.16"/>
<polygon fill="#3499cd" stroke="#cde8ef" points="33.8523,-353.763 29.5659,-344.074 26.8746,-354.321 33.8523,-353.763"/>
</g>
<!-- layer 4
model 1
linear cov&#45;&gt;layer 5
model 2
linear cov -->
<g id="edge35" class="edge"><title>layer 4
model 1
linear cov&#45;&gt;layer 5
model 2
linear cov</title>
<path fill="none" stroke="#cde8ef" d="M51.8662,-379.795C59.6747,-371.182 68.9613,-360.94 77.4072,-351.624"/>
<polygon fill="#3499cd" stroke="#cde8ef" points="80.1291,-353.833 84.2531,-344.074 74.9433,-349.131 80.1291,-353.833"/>
</g>
<!-- layer 5
model 3
linear cov -->
<g id="node33" class="node"><title>layer 5
model 3
linear cov</title>
<polygon fill="#cde8ef" stroke="#cde8ef" points="278,-344 222,-344 222,-303 278,-303 278,-344"/>
<text text-anchor="middle" x="250" y="-332" font-family="Times New Roman,serif" font-size="10.00">layer 5</text>
<text text-anchor="middle" x="250" y="-321" font-family="Times New Roman,serif" font-size="10.00">model 3</text>
<text text-anchor="middle" x="250" y="-310" font-family="Times New Roman,serif" font-size="10.00">linear cov</text>
</g>
<!-- layer 4
model 2
linear cov&#45;&gt;layer 5
model 3
linear cov -->
<g id="edge37" class="edge"><title>layer 4
model 2
linear cov&#45;&gt;layer 5
model 3
linear cov</title>
<path fill="none" stroke="#cde8ef" d="M287.6,-379.795C281.92,-371.441 275.196,-361.553 269.016,-352.465"/>
<polygon fill="#3499cd" stroke="#cde8ef" points="271.828,-350.375 263.31,-344.074 266.039,-354.311 271.828,-350.375"/>
</g>
<!-- layer 4
model 3
linear cov&#45;&gt;layer 5
model 0
linear cov -->
<g id="edge32" class="edge"><title>layer 4
model 3
linear cov&#45;&gt;layer 5
model 0
linear cov</title>
<path fill="none" stroke="#cde8ef" d="M124.948,-382.669C107.3,-372.08 84.3235,-358.294 65.1683,-346.801"/>
<polygon fill="#3499cd" stroke="#cde8ef" points="66.767,-343.679 56.3913,-341.535 63.1655,-349.681 66.767,-343.679"/>
</g>
<!-- layer 4
model 3
linear cov&#45;&gt;layer 5
model 1
linear cov -->
<g id="edge34" class="edge"><title>layer 4
model 3
linear cov&#45;&gt;layer 5
model 1
linear cov</title>
<path fill="none" stroke="#cde8ef" d="M159.043,-379.795C161.473,-371.871 164.326,-362.568 166.991,-353.877"/>
<polygon fill="#3499cd" stroke="#cde8ef" points="170.412,-354.66 169.997,-344.074 163.719,-352.608 170.412,-354.66"/>
</g>
<!-- layer 4
model 3
linear cov&#45;&gt;layer 5
model 3
linear cov -->
<g id="edge38" class="edge"><title>layer 4
model 3
linear cov&#45;&gt;layer 5
model 3
linear cov</title>
<path fill="none" stroke="#cde8ef" d="M178.232,-379.99C189.928,-370.947 203.99,-360.074 216.556,-350.359"/>
<polygon fill="#3499cd" stroke="#cde8ef" points="218.787,-353.058 224.557,-344.172 214.505,-347.52 218.787,-353.058"/>
</g>
<!-- layer 6
model 1
linear cov -->
<g id="node35" class="node"><title>layer 6
model 1
linear cov</title>
<polygon fill="#cde8ef" stroke="#cde8ef" points="93,-267 37,-267 37,-226 93,-226 93,-267"/>
<text text-anchor="middle" x="65" y="-255" font-family="Times New Roman,serif" font-size="10.00">layer 6</text>
<text text-anchor="middle" x="65" y="-244" font-family="Times New Roman,serif" font-size="10.00">model 1</text>
<text text-anchor="middle" x="65" y="-233" font-family="Times New Roman,serif" font-size="10.00">linear cov</text>
</g>
<!-- layer 5
model 0
linear cov&#45;&gt;layer 6
model 1
linear cov -->
<g id="edge41" class="edge"><title>layer 5
model 0
linear cov&#45;&gt;layer 6
model 1
linear cov</title>
<path fill="none" stroke="#cde8ef" d="M37.7213,-302.795C41.7151,-294.699 46.4196,-285.163 50.7867,-276.311"/>
<polygon fill="#3499cd" stroke="#cde8ef" points="54.0581,-277.59 55.3436,-267.074 47.7805,-274.493 54.0581,-277.59"/>
</g>
<!-- layer 6
model 0
linear cov -->
<g id="node34" class="node"><title>layer 6
model 0
linear cov</title>
<polygon fill="#cde8ef" stroke="#cde8ef" points="167,-267 111,-267 111,-226 167,-226 167,-267"/>
<text text-anchor="middle" x="139" y="-255" font-family="Times New Roman,serif" font-size="10.00">layer 6</text>
<text text-anchor="middle" x="139" y="-244" font-family="Times New Roman,serif" font-size="10.00">model 0</text>
<text text-anchor="middle" x="139" y="-233" font-family="Times New Roman,serif" font-size="10.00">linear cov</text>
</g>
<!-- layer 5
model 1
linear cov&#45;&gt;layer 6
model 0
linear cov -->
<g id="edge39" class="edge"><title>layer 5
model 1
linear cov&#45;&gt;layer 6
model 0
linear cov</title>
<path fill="none" stroke="#cde8ef" d="M166.279,-302.795C162.285,-294.699 157.58,-285.163 153.213,-276.311"/>
<polygon fill="#3499cd" stroke="#cde8ef" points="156.22,-274.493 148.656,-267.074 149.942,-277.59 156.22,-274.493"/>
</g>
<!-- layer 5
model 2
linear cov&#45;&gt;layer 6
model 0
linear cov -->
<g id="edge40" class="edge"><title>layer 5
model 2
linear cov&#45;&gt;layer 6
model 0
linear cov</title>
<path fill="none" stroke="#cde8ef" d="M111.721,-302.795C115.715,-294.699 120.42,-285.163 124.787,-276.311"/>
<polygon fill="#3499cd" stroke="#cde8ef" points="128.058,-277.59 129.344,-267.074 121.78,-274.493 128.058,-277.59"/>
</g>
<!-- layer 5
model 2
linear cov&#45;&gt;layer 6
model 1
linear cov -->
<g id="edge42" class="edge"><title>layer 5
model 2
linear cov&#45;&gt;layer 6
model 1
linear cov</title>
<path fill="none" stroke="#cde8ef" d="M92.2787,-302.795C88.2849,-294.699 83.5804,-285.163 79.2133,-276.311"/>
<polygon fill="#3499cd" stroke="#cde8ef" points="82.2195,-274.493 74.6564,-267.074 75.9419,-277.59 82.2195,-274.493"/>
</g>
<!-- layer 6
model 2
linear cov -->
<g id="node36" class="node"><title>layer 6
model 2
linear cov</title>
<polygon fill="#cde8ef" stroke="#cde8ef" points="241,-267 185,-267 185,-226 241,-226 241,-267"/>
<text text-anchor="middle" x="213" y="-255" font-family="Times New Roman,serif" font-size="10.00">layer 6</text>
<text text-anchor="middle" x="213" y="-244" font-family="Times New Roman,serif" font-size="10.00">model 2</text>
<text text-anchor="middle" x="213" y="-233" font-family="Times New Roman,serif" font-size="10.00">linear cov</text>
</g>
<!-- layer 5
model 2
linear cov&#45;&gt;layer 6
model 2
linear cov -->
<g id="edge43" class="edge"><title>layer 5
model 2
linear cov&#45;&gt;layer 6
model 2
linear cov</title>
<path fill="none" stroke="#cde8ef" d="M130.01,-303.574C144.076,-294.07 161.294,-282.436 176.393,-272.234"/>
<polygon fill="#3499cd" stroke="#cde8ef" points="178.673,-274.918 184.999,-266.42 174.754,-269.118 178.673,-274.918"/>
</g>
<!-- layer 5
model 3
linear cov&#45;&gt;layer 6
model 2
linear cov -->
<g id="edge44" class="edge"><title>layer 5
model 3
linear cov&#45;&gt;layer 6
model 2
linear cov</title>
<path fill="none" stroke="#cde8ef" d="M240.279,-302.795C236.285,-294.699 231.58,-285.163 227.213,-276.311"/>
<polygon fill="#3499cd" stroke="#cde8ef" points="230.22,-274.493 222.656,-267.074 223.942,-277.59 230.22,-274.493"/>
</g>
<!-- layer 7
model 0
linear cov -->
<g id="node37" class="node"><title>layer 7
model 0
linear cov</title>
<polygon fill="#cde8ef" stroke="#cde8ef" points="130,-190 74,-190 74,-149 130,-149 130,-190"/>
<text text-anchor="middle" x="102" y="-178" font-family="Times New Roman,serif" font-size="10.00">layer 7</text>
<text text-anchor="middle" x="102" y="-167" font-family="Times New Roman,serif" font-size="10.00">model 0</text>
<text text-anchor="middle" x="102" y="-156" font-family="Times New Roman,serif" font-size="10.00">linear cov</text>
</g>
<!-- layer 6
model 0
linear cov&#45;&gt;layer 7
model 0
linear cov -->
<g id="edge45" class="edge"><title>layer 6
model 0
linear cov&#45;&gt;layer 7
model 0
linear cov</title>
<path fill="none" stroke="#cde8ef" d="M129.279,-225.795C125.285,-217.699 120.58,-208.163 116.213,-199.311"/>
<polygon fill="#3499cd" stroke="#cde8ef" points="119.22,-197.493 111.656,-190.074 112.942,-200.59 119.22,-197.493"/>
</g>
<!-- layer 7
model 1
linear cov -->
<g id="node38" class="node"><title>layer 7
model 1
linear cov</title>
<polygon fill="#cde8ef" stroke="#cde8ef" points="204,-190 148,-190 148,-149 204,-149 204,-190"/>
<text text-anchor="middle" x="176" y="-178" font-family="Times New Roman,serif" font-size="10.00">layer 7</text>
<text text-anchor="middle" x="176" y="-167" font-family="Times New Roman,serif" font-size="10.00">model 1</text>
<text text-anchor="middle" x="176" y="-156" font-family="Times New Roman,serif" font-size="10.00">linear cov</text>
</g>
<!-- layer 6
model 0
linear cov&#45;&gt;layer 7
model 1
linear cov -->
<g id="edge47" class="edge"><title>layer 6
model 0
linear cov&#45;&gt;layer 7
model 1
linear cov</title>
<path fill="none" stroke="#cde8ef" d="M148.721,-225.795C152.715,-217.699 157.42,-208.163 161.787,-199.311"/>
<polygon fill="#3499cd" stroke="#cde8ef" points="165.058,-200.59 166.344,-190.074 158.78,-197.493 165.058,-200.59"/>
</g>
<!-- layer 6
model 1
linear cov&#45;&gt;layer 7
model 0
linear cov -->
<g id="edge46" class="edge"><title>layer 6
model 1
linear cov&#45;&gt;layer 7
model 0
linear cov</title>
<path fill="none" stroke="#cde8ef" d="M74.7213,-225.795C78.7151,-217.699 83.4196,-208.163 87.7867,-199.311"/>
<polygon fill="#3499cd" stroke="#cde8ef" points="91.0581,-200.59 92.3436,-190.074 84.7805,-197.493 91.0581,-200.59"/>
</g>
<!-- layer 6
model 2
linear cov&#45;&gt;layer 7
model 1
linear cov -->
<g id="edge48" class="edge"><title>layer 6
model 2
linear cov&#45;&gt;layer 7
model 1
linear cov</title>
<path fill="none" stroke="#cde8ef" d="M203.279,-225.795C199.285,-217.699 194.58,-208.163 190.213,-199.311"/>
<polygon fill="#3499cd" stroke="#cde8ef" points="193.22,-197.493 185.656,-190.074 186.942,-200.59 193.22,-197.493"/>
</g>
<!-- layer 8
model 0
linear cov -->
<g id="node39" class="node"><title>layer 8
model 0
linear cov</title>
<polygon fill="#cde8ef" stroke="#cde8ef" points="167,-113 111,-113 111,-72 167,-72 167,-113"/>
<text text-anchor="middle" x="139" y="-101" font-family="Times New Roman,serif" font-size="10.00">layer 8</text>
<text text-anchor="middle" x="139" y="-90" font-family="Times New Roman,serif" font-size="10.00">model 0</text>
<text text-anchor="middle" x="139" y="-79" font-family="Times New Roman,serif" font-size="10.00">linear cov</text>
</g>
<!-- layer 7
model 0
linear cov&#45;&gt;layer 8
model 0
linear cov -->
<g id="edge49" class="edge"><title>layer 7
model 0
linear cov&#45;&gt;layer 8
model 0
linear cov</title>
<path fill="none" stroke="#cde8ef" d="M111.721,-148.795C115.715,-140.699 120.42,-131.163 124.787,-122.311"/>
<polygon fill="#3499cd" stroke="#cde8ef" points="128.058,-123.59 129.344,-113.074 121.78,-120.493 128.058,-123.59"/>
</g>
<!-- layer 7
model 1
linear cov&#45;&gt;layer 8
model 0
linear cov -->
<g id="edge50" class="edge"><title>layer 7
model 1
linear cov&#45;&gt;layer 8
model 0
linear cov</title>
<path fill="none" stroke="#cde8ef" d="M166.279,-148.795C162.285,-140.699 157.58,-131.163 153.213,-122.311"/>
<polygon fill="#3499cd" stroke="#cde8ef" points="156.22,-120.493 148.656,-113.074 149.942,-123.59 156.22,-120.493"/>
</g>
<!-- layer 8
model 0
linear cov&#45;&gt;OUTPUT -->
<g id="edge51" class="edge"><title>layer 8
model 0
linear cov&#45;&gt;OUTPUT</title>
<path fill="none" stroke="#cde8ef" d="M139,-71.6891C139,-63.9066 139,-54.8417 139,-46.4471"/>
<polygon fill="#3499cd" stroke="#cde8ef" points="142.5,-46.3194 139,-36.3195 135.5,-46.3195 142.5,-46.3194"/>
</g>
</g>
</svg>
