<?xml version="1.0" encoding="UTF-8" standalone="no"?>
<!DOCTYPE svg PUBLIC "-//W3C//DTD SVG 1.1//EN"
 "http://www.w3.org/Graphics/SVG/1.1/DTD/svg11.dtd">
<!-- Generated by graphviz version 2.38.0 (20140413.2041)
 -->
<!-- Title: %3 Pages: 1 -->
<svg width="734pt" height="1289pt"
 viewBox="0.00 0.00 734.00 1289.50" xmlns="http://www.w3.org/2000/svg" xmlns:xlink="http://www.w3.org/1999/xlink">
<g id="graph0" class="graph" transform="scale(1 1) rotate(0) translate(4 1285.5)">
<title>%3</title>
<polygon fill="white" stroke="none" points="-4,4 -4,-1285.5 730,-1285.5 730,4 -4,4"/>
<text text-anchor="middle" x="363" y="-1263.1" font-family="Times New Roman,serif" font-size="18.00">Multilayered group method of data handling model</text>
<text text-anchor="middle" x="363" y="-1243.1" font-family="Times New Roman,serif" font-size="18.00"> </text>
<!-- OUTPUT -->
<g id="node1" class="node"><title>OUTPUT</title>
<ellipse fill="#ff9c34" stroke="#f89939" cx="108" cy="-18" rx="38.3335" ry="18"/>
<text text-anchor="middle" x="108" y="-14.9" font-family="Times New Roman,serif" font-size="12.00" fill="white">OUTPUT</text>
</g>
<!-- F0
CRIM -->
<g id="node2" class="node"><title>F0
CRIM</title>
<ellipse fill="#ff9c34" stroke="#f89939" cx="126" cy="-642.125" rx="33.4697" ry="24.0833"/>
<text text-anchor="middle" x="126" y="-645.525" font-family="Times New Roman,serif" font-size="12.00" fill="white">F0</text>
<text text-anchor="middle" x="126" y="-632.525" font-family="Times New Roman,serif" font-size="12.00" fill="white">CRIM</text>
</g>
<!-- layer 7
model 0
linear cov -->
<g id="node31" class="node"><title>layer 7
model 0
linear cov</title>
<polygon fill="#cde8ef" stroke="#cde8ef" points="210,-582.083 154,-582.083 154,-541.083 210,-541.083 210,-582.083"/>
<text text-anchor="middle" x="182" y="-570.083" font-family="Times New Roman,serif" font-size="10.00">layer 7</text>
<text text-anchor="middle" x="182" y="-559.083" font-family="Times New Roman,serif" font-size="10.00">model 0</text>
<text text-anchor="middle" x="182" y="-548.083" font-family="Times New Roman,serif" font-size="10.00">linear cov</text>
</g>
<!-- F0
CRIM&#45;&gt;layer 7
model 0
linear cov -->
<g id="edge34" class="edge"><title>F0
CRIM&#45;&gt;layer 7
model 0
linear cov</title>
<path fill="none" stroke="#cde8ef" d="M140.713,-620.489C147.23,-611.349 154.997,-600.456 162.026,-590.597"/>
<polygon fill="#3499cd" stroke="#cde8ef" points="165.008,-592.444 167.964,-582.27 159.308,-588.38 165.008,-592.444"/>
</g>
<!-- layer 11
model 0
linear cov -->
<g id="node35" class="node"><title>layer 11
model 0
linear cov</title>
<polygon fill="#cde8ef" stroke="#cde8ef" points="218,-267 162,-267 162,-226 218,-226 218,-267"/>
<text text-anchor="middle" x="190" y="-255" font-family="Times New Roman,serif" font-size="10.00">layer 11</text>
<text text-anchor="middle" x="190" y="-244" font-family="Times New Roman,serif" font-size="10.00">model 0</text>
<text text-anchor="middle" x="190" y="-233" font-family="Times New Roman,serif" font-size="10.00">linear cov</text>
</g>
<!-- F0
CRIM&#45;&gt;layer 11
model 0
linear cov -->
<g id="edge42" class="edge"><title>F0
CRIM&#45;&gt;layer 11
model 0
linear cov</title>
<path fill="none" stroke="#cde8ef" d="M126,-617.941C126,-586.967 126,-530.374 126,-482.042 126,-482.042 126,-482.042 126,-399.5 126,-353.312 151.412,-304.979 170.21,-275.544"/>
<polygon fill="#3499cd" stroke="#cde8ef" points="173.232,-277.319 175.796,-267.039 167.381,-273.476 173.232,-277.319"/>
</g>
<!-- F1
ZN -->
<g id="node3" class="node"><title>F1
ZN</title>
<ellipse fill="#ff9c34" stroke="#f89939" cx="255" cy="-481.042" rx="27" ry="24.0833"/>
<text text-anchor="middle" x="255" y="-484.442" font-family="Times New Roman,serif" font-size="12.00" fill="white">F1</text>
<text text-anchor="middle" x="255" y="-471.442" font-family="Times New Roman,serif" font-size="12.00" fill="white">ZN</text>
</g>
<!-- layer 9
model 0
linear cov -->
<g id="node33" class="node"><title>layer 9
model 0
linear cov</title>
<polygon fill="#cde8ef" stroke="#cde8ef" points="251,-421 195,-421 195,-380 251,-380 251,-421"/>
<text text-anchor="middle" x="223" y="-409" font-family="Times New Roman,serif" font-size="10.00">layer 9</text>
<text text-anchor="middle" x="223" y="-398" font-family="Times New Roman,serif" font-size="10.00">model 0</text>
<text text-anchor="middle" x="223" y="-387" font-family="Times New Roman,serif" font-size="10.00">linear cov</text>
</g>
<!-- F1
ZN&#45;&gt;layer 9
model 0
linear cov -->
<g id="edge38" class="edge"><title>F1
ZN&#45;&gt;layer 9
model 0
linear cov</title>
<path fill="none" stroke="#cde8ef" d="M246.086,-458.163C242.609,-449.63 238.573,-439.724 234.857,-430.603"/>
<polygon fill="#3499cd" stroke="#cde8ef" points="238.007,-429.057 230.992,-421.117 231.524,-431.698 238.007,-429.057"/>
</g>
<!-- F2
INDUS -->
<g id="node4" class="node"><title>F2
INDUS</title>
<ellipse fill="#ff9c34" stroke="#f89939" cx="457" cy="-1209.46" rx="37.4533" ry="24.0833"/>
<text text-anchor="middle" x="457" y="-1212.86" font-family="Times New Roman,serif" font-size="12.00" fill="white">F2</text>
<text text-anchor="middle" x="457" y="-1199.86" font-family="Times New Roman,serif" font-size="12.00" fill="white">INDUS</text>
</g>
<!-- F3
CHAS -->
<g id="node5" class="node"><title>F3
CHAS</title>
<ellipse fill="#ff9c34" stroke="#f89939" cx="546" cy="-1209.46" rx="33.8824" ry="24.0833"/>
<text text-anchor="middle" x="546" y="-1212.86" font-family="Times New Roman,serif" font-size="12.00" fill="white">F3</text>
<text text-anchor="middle" x="546" y="-1199.86" font-family="Times New Roman,serif" font-size="12.00" fill="white">CHAS</text>
</g>
<!-- F4
NOX -->
<g id="node6" class="node"><title>F4
NOX</title>
<ellipse fill="#ff9c34" stroke="#f89939" cx="96" cy="-803.208" rx="30.3115" ry="24.0833"/>
<text text-anchor="middle" x="96" y="-806.608" font-family="Times New Roman,serif" font-size="12.00" fill="white">F4</text>
<text text-anchor="middle" x="96" y="-793.608" font-family="Times New Roman,serif" font-size="12.00" fill="white">NOX</text>
</g>
<!-- layer 5
model 1
linear cov -->
<g id="node29" class="node"><title>layer 5
model 1
linear cov</title>
<polygon fill="#cde8ef" stroke="#cde8ef" points="185,-743.167 129,-743.167 129,-702.167 185,-702.167 185,-743.167"/>
<text text-anchor="middle" x="157" y="-731.167" font-family="Times New Roman,serif" font-size="10.00">layer 5</text>
<text text-anchor="middle" x="157" y="-720.167" font-family="Times New Roman,serif" font-size="10.00">model 1</text>
<text text-anchor="middle" x="157" y="-709.167" font-family="Times New Roman,serif" font-size="10.00">linear cov</text>
</g>
<!-- F4
NOX&#45;&gt;layer 5
model 1
linear cov -->
<g id="edge30" class="edge"><title>F4
NOX&#45;&gt;layer 5
model 1
linear cov</title>
<path fill="none" stroke="#cde8ef" d="M111.393,-782.389C118.745,-772.922 127.664,-761.438 135.658,-751.145"/>
<polygon fill="#3499cd" stroke="#cde8ef" points="138.454,-753.252 141.823,-743.207 132.925,-748.958 138.454,-753.252"/>
</g>
<!-- layer 13
model 0
linear cov -->
<g id="node37" class="node"><title>layer 13
model 0
linear cov</title>
<polygon fill="#cde8ef" stroke="#cde8ef" points="136,-113 80,-113 80,-72 136,-72 136,-113"/>
<text text-anchor="middle" x="108" y="-101" font-family="Times New Roman,serif" font-size="10.00">layer 13</text>
<text text-anchor="middle" x="108" y="-90" font-family="Times New Roman,serif" font-size="10.00">model 0</text>
<text text-anchor="middle" x="108" y="-79" font-family="Times New Roman,serif" font-size="10.00">linear cov</text>
</g>
<!-- F4
NOX&#45;&gt;layer 13
model 0
linear cov -->
<g id="edge46" class="edge"><title>F4
NOX&#45;&gt;layer 13
model 0
linear cov</title>
<path fill="none" stroke="#cde8ef" d="M76.1087,-784.28C47.9897,-756.86 0,-701.512 0,-643.125 0,-643.125 0,-643.125 0,-245.5 0,-193.723 42.1587,-147.311 73.7957,-119.771"/>
<polygon fill="#3499cd" stroke="#cde8ef" points="76.207,-122.316 81.5802,-113.184 71.6855,-116.972 76.207,-122.316"/>
</g>
<!-- F5
RM -->
<g id="node7" class="node"><title>F5
RM</title>
<ellipse fill="#ff9c34" stroke="#f89939" cx="173" cy="-1209.46" rx="27" ry="24.0833"/>
<text text-anchor="middle" x="173" y="-1212.86" font-family="Times New Roman,serif" font-size="12.00" fill="white">F5</text>
<text text-anchor="middle" x="173" y="-1199.86" font-family="Times New Roman,serif" font-size="12.00" fill="white">RM</text>
</g>
<!-- layer 0
model 0
linear cov -->
<g id="node15" class="node"><title>layer 0
model 0
linear cov</title>
<polygon fill="#cde8ef" stroke="#cde8ef" points="288,-1149.42 232,-1149.42 232,-1108.42 288,-1108.42 288,-1149.42"/>
<text text-anchor="middle" x="260" y="-1137.42" font-family="Times New Roman,serif" font-size="10.00">layer 0</text>
<text text-anchor="middle" x="260" y="-1126.42" font-family="Times New Roman,serif" font-size="10.00">model 0</text>
<text text-anchor="middle" x="260" y="-1115.42" font-family="Times New Roman,serif" font-size="10.00">linear cov</text>
</g>
<!-- F5
RM&#45;&gt;layer 0
model 0
linear cov -->
<g id="edge1" class="edge"><title>F5
RM&#45;&gt;layer 0
model 0
linear cov</title>
<path fill="none" stroke="#cde8ef" d="M191.45,-1191.8C202.768,-1181.58 217.518,-1168.27 230.435,-1156.61"/>
<polygon fill="#3499cd" stroke="#cde8ef" points="233.116,-1158.9 238.194,-1149.6 228.426,-1153.71 233.116,-1158.9"/>
</g>
<!-- layer 0
model 2
linear cov -->
<g id="node17" class="node"><title>layer 0
model 2
linear cov</title>
<polygon fill="#cde8ef" stroke="#cde8ef" points="176,-1149.42 120,-1149.42 120,-1108.42 176,-1108.42 176,-1149.42"/>
<text text-anchor="middle" x="148" y="-1137.42" font-family="Times New Roman,serif" font-size="10.00">layer 0</text>
<text text-anchor="middle" x="148" y="-1126.42" font-family="Times New Roman,serif" font-size="10.00">model 2</text>
<text text-anchor="middle" x="148" y="-1115.42" font-family="Times New Roman,serif" font-size="10.00">linear cov</text>
</g>
<!-- F5
RM&#45;&gt;layer 0
model 2
linear cov -->
<g id="edge5" class="edge"><title>F5
RM&#45;&gt;layer 0
model 2
linear cov</title>
<path fill="none" stroke="#cde8ef" d="M165.903,-1186.16C163.239,-1177.79 160.169,-1168.15 157.333,-1159.24"/>
<polygon fill="#3499cd" stroke="#cde8ef" points="160.631,-1158.06 154.263,-1149.59 153.961,-1160.18 160.631,-1158.06"/>
</g>
<!-- F6
AGE -->
<g id="node8" class="node"><title>F6
AGE</title>
<ellipse fill="#ff9c34" stroke="#f89939" cx="626" cy="-1209.46" rx="28.0702" ry="24.0833"/>
<text text-anchor="middle" x="626" y="-1212.86" font-family="Times New Roman,serif" font-size="12.00" fill="white">F6</text>
<text text-anchor="middle" x="626" y="-1199.86" font-family="Times New Roman,serif" font-size="12.00" fill="white">AGE</text>
</g>
<!-- F7
DIS -->
<g id="node9" class="node"><title>F7
DIS</title>
<ellipse fill="#ff9c34" stroke="#f89939" cx="172" cy="-887.291" rx="27" ry="24.0833"/>
<text text-anchor="middle" x="172" y="-890.691" font-family="Times New Roman,serif" font-size="12.00" fill="white">F7</text>
<text text-anchor="middle" x="172" y="-877.691" font-family="Times New Roman,serif" font-size="12.00" fill="white">DIS</text>
</g>
<!-- layer 4
model 0
linear cov -->
<g id="node26" class="node"><title>layer 4
model 0
linear cov</title>
<polygon fill="#cde8ef" stroke="#cde8ef" points="200,-823.708 144,-823.708 144,-782.708 200,-782.708 200,-823.708"/>
<text text-anchor="middle" x="172" y="-811.708" font-family="Times New Roman,serif" font-size="10.00">layer 4</text>
<text text-anchor="middle" x="172" y="-800.708" font-family="Times New Roman,serif" font-size="10.00">model 0</text>
<text text-anchor="middle" x="172" y="-789.708" font-family="Times New Roman,serif" font-size="10.00">linear cov</text>
</g>
<!-- F7
DIS&#45;&gt;layer 4
model 0
linear cov -->
<g id="edge24" class="edge"><title>F7
DIS&#45;&gt;layer 4
model 0
linear cov</title>
<path fill="none" stroke="#cde8ef" d="M172,-862.989C172,-854.036 172,-843.687 172,-834.192"/>
<polygon fill="#3499cd" stroke="#cde8ef" points="175.5,-833.954 172,-823.954 168.5,-833.954 175.5,-833.954"/>
</g>
<!-- layer 5
model 0
linear cov -->
<g id="node28" class="node"><title>layer 5
model 0
linear cov</title>
<polygon fill="#cde8ef" stroke="#cde8ef" points="259,-743.167 203,-743.167 203,-702.167 259,-702.167 259,-743.167"/>
<text text-anchor="middle" x="231" y="-731.167" font-family="Times New Roman,serif" font-size="10.00">layer 5</text>
<text text-anchor="middle" x="231" y="-720.167" font-family="Times New Roman,serif" font-size="10.00">model 0</text>
<text text-anchor="middle" x="231" y="-709.167" font-family="Times New Roman,serif" font-size="10.00">linear cov</text>
</g>
<!-- F7
DIS&#45;&gt;layer 5
model 0
linear cov -->
<g id="edge28" class="edge"><title>F7
DIS&#45;&gt;layer 5
model 0
linear cov</title>
<path fill="none" stroke="#cde8ef" d="M186.51,-867.009C194.23,-855.902 203.282,-841.379 209,-827.25 218.676,-803.341 224.354,-774.527 227.51,-753.366"/>
<polygon fill="#3499cd" stroke="#cde8ef" points="230.991,-753.743 228.901,-743.356 224.058,-752.779 230.991,-753.743"/>
</g>
<!-- F8
RAD -->
<g id="node10" class="node"><title>F8
RAD</title>
<ellipse fill="#ff9c34" stroke="#f89939" cx="306" cy="-1048.37" rx="28.9828" ry="24.0833"/>
<text text-anchor="middle" x="306" y="-1051.77" font-family="Times New Roman,serif" font-size="12.00" fill="white">F8</text>
<text text-anchor="middle" x="306" y="-1038.77" font-family="Times New Roman,serif" font-size="12.00" fill="white">RAD</text>
</g>
<!-- layer 2
model 0
linear cov -->
<g id="node21" class="node"><title>layer 2
model 0
linear cov</title>
<polygon fill="#cde8ef" stroke="#cde8ef" points="423,-988.333 367,-988.333 367,-947.333 423,-947.333 423,-988.333"/>
<text text-anchor="middle" x="395" y="-976.333" font-family="Times New Roman,serif" font-size="10.00">layer 2</text>
<text text-anchor="middle" x="395" y="-965.333" font-family="Times New Roman,serif" font-size="10.00">model 0</text>
<text text-anchor="middle" x="395" y="-954.333" font-family="Times New Roman,serif" font-size="10.00">linear cov</text>
</g>
<!-- F8
RAD&#45;&gt;layer 2
model 0
linear cov -->
<g id="edge14" class="edge"><title>F8
RAD&#45;&gt;layer 2
model 0
linear cov</title>
<path fill="none" stroke="#cde8ef" d="M325.312,-1030.33C336.827,-1020.17 351.699,-1007.05 364.744,-995.533"/>
<polygon fill="#3499cd" stroke="#cde8ef" points="367.403,-997.855 372.585,-988.614 362.771,-992.607 367.403,-997.855"/>
</g>
<!-- layer 2
model 1
linear cov -->
<g id="node22" class="node"><title>layer 2
model 1
linear cov</title>
<polygon fill="#cde8ef" stroke="#cde8ef" points="71,-988.333 15,-988.333 15,-947.333 71,-947.333 71,-988.333"/>
<text text-anchor="middle" x="43" y="-976.333" font-family="Times New Roman,serif" font-size="10.00">layer 2</text>
<text text-anchor="middle" x="43" y="-965.333" font-family="Times New Roman,serif" font-size="10.00">model 1</text>
<text text-anchor="middle" x="43" y="-954.333" font-family="Times New Roman,serif" font-size="10.00">linear cov</text>
</g>
<!-- F8
RAD&#45;&gt;layer 2
model 1
linear cov -->
<g id="edge16" class="edge"><title>F8
RAD&#45;&gt;layer 2
model 1
linear cov</title>
<path fill="none" stroke="#cde8ef" d="M284.168,-1032.36C279.038,-1029.34 273.468,-1026.45 268,-1024.33 190.707,-994.384 163.828,-1013.97 85,-988.333 83.5666,-987.867 82.1178,-987.364 80.6636,-986.833"/>
<polygon fill="#3499cd" stroke="#cde8ef" points="81.678,-983.469 71.0936,-982.998 79.074,-989.967 81.678,-983.469"/>
</g>
<!-- layer 2
model 2
linear cov -->
<g id="node23" class="node"><title>layer 2
model 2
linear cov</title>
<polygon fill="#cde8ef" stroke="#cde8ef" points="268,-988.333 212,-988.333 212,-947.333 268,-947.333 268,-988.333"/>
<text text-anchor="middle" x="240" y="-976.333" font-family="Times New Roman,serif" font-size="10.00">layer 2</text>
<text text-anchor="middle" x="240" y="-965.333" font-family="Times New Roman,serif" font-size="10.00">model 2</text>
<text text-anchor="middle" x="240" y="-954.333" font-family="Times New Roman,serif" font-size="10.00">linear cov</text>
</g>
<!-- F8
RAD&#45;&gt;layer 2
model 2
linear cov -->
<g id="edge18" class="edge"><title>F8
RAD&#45;&gt;layer 2
model 2
linear cov</title>
<path fill="none" stroke="#cde8ef" d="M289.685,-1027.96C281.655,-1018.4 271.835,-1006.72 263.053,-996.266"/>
<polygon fill="#3499cd" stroke="#cde8ef" points="265.698,-993.974 256.585,-988.57 260.339,-998.478 265.698,-993.974"/>
</g>
<!-- layer 4
model 1
linear cov -->
<g id="node27" class="node"><title>layer 4
model 1
linear cov</title>
<polygon fill="#cde8ef" stroke="#cde8ef" points="312,-823.708 256,-823.708 256,-782.708 312,-782.708 312,-823.708"/>
<text text-anchor="middle" x="284" y="-811.708" font-family="Times New Roman,serif" font-size="10.00">layer 4</text>
<text text-anchor="middle" x="284" y="-800.708" font-family="Times New Roman,serif" font-size="10.00">model 1</text>
<text text-anchor="middle" x="284" y="-789.708" font-family="Times New Roman,serif" font-size="10.00">linear cov</text>
</g>
<!-- F8
RAD&#45;&gt;layer 4
model 1
linear cov -->
<g id="edge26" class="edge"><title>F8
RAD&#45;&gt;layer 4
model 1
linear cov</title>
<path fill="none" stroke="#cde8ef" d="M303.891,-1024.06C299.873,-979.65 291.128,-882.997 286.694,-833.986"/>
<polygon fill="#3499cd" stroke="#cde8ef" points="290.178,-833.65 285.791,-824.006 283.207,-834.281 290.178,-833.65"/>
</g>
<!-- layer 8
model 0
linear cov -->
<g id="node32" class="node"><title>layer 8
model 0
linear cov</title>
<polygon fill="#cde8ef" stroke="#cde8ef" points="210,-501.542 154,-501.542 154,-460.542 210,-460.542 210,-501.542"/>
<text text-anchor="middle" x="182" y="-489.542" font-family="Times New Roman,serif" font-size="10.00">layer 8</text>
<text text-anchor="middle" x="182" y="-478.542" font-family="Times New Roman,serif" font-size="10.00">model 0</text>
<text text-anchor="middle" x="182" y="-467.542" font-family="Times New Roman,serif" font-size="10.00">linear cov</text>
</g>
<!-- F8
RAD&#45;&gt;layer 8
model 0
linear cov -->
<g id="edge36" class="edge"><title>F8
RAD&#45;&gt;layer 8
model 0
linear cov</title>
<path fill="none" stroke="#cde8ef" d="M283.188,-1033.32C278.206,-1030.32 272.945,-1027.19 268,-1024.33 177.555,-972.138 120.802,-997.629 62,-911.333 14.6507,-841.845 38,-807.753 38,-723.667 38,-723.667 38,-723.667 38,-641.125 38,-577.305 102.487,-527.66 145.152,-501.798"/>
<polygon fill="#3499cd" stroke="#cde8ef" points="147.057,-504.738 153.894,-496.644 143.502,-498.708 147.057,-504.738"/>
</g>
<!-- layer 10
model 0
linear cov -->
<g id="node34" class="node"><title>layer 10
model 0
linear cov</title>
<polygon fill="#cde8ef" stroke="#cde8ef" points="251,-344 195,-344 195,-303 251,-303 251,-344"/>
<text text-anchor="middle" x="223" y="-332" font-family="Times New Roman,serif" font-size="10.00">layer 10</text>
<text text-anchor="middle" x="223" y="-321" font-family="Times New Roman,serif" font-size="10.00">model 0</text>
<text text-anchor="middle" x="223" y="-310" font-family="Times New Roman,serif" font-size="10.00">linear cov</text>
</g>
<!-- F8
RAD&#45;&gt;layer 10
model 0
linear cov -->
<g id="edge40" class="edge"><title>F8
RAD&#45;&gt;layer 10
model 0
linear cov</title>
<path fill="none" stroke="#cde8ef" d="M311.313,-1024.73C320.875,-981.911 340,-886.052 340,-804.208 340,-804.208 340,-804.208 340,-480.042 340,-425.453 293.408,-377.821 259.027,-350.103"/>
<polygon fill="#3499cd" stroke="#cde8ef" points="261.053,-347.244 251.024,-343.827 256.734,-352.752 261.053,-347.244"/>
</g>
<!-- layer 12
model 0
linear cov -->
<g id="node36" class="node"><title>layer 12
model 0
linear cov</title>
<polygon fill="#cde8ef" stroke="#cde8ef" points="218,-190 162,-190 162,-149 218,-149 218,-190"/>
<text text-anchor="middle" x="190" y="-178" font-family="Times New Roman,serif" font-size="10.00">layer 12</text>
<text text-anchor="middle" x="190" y="-167" font-family="Times New Roman,serif" font-size="10.00">model 0</text>
<text text-anchor="middle" x="190" y="-156" font-family="Times New Roman,serif" font-size="10.00">linear cov</text>
</g>
<!-- F8
RAD&#45;&gt;layer 12
model 0
linear cov -->
<g id="edge44" class="edge"><title>F8
RAD&#45;&gt;layer 12
model 0
linear cov</title>
<path fill="none" stroke="#cde8ef" d="M328.579,-1032.89C333.575,-1029.91 338.901,-1026.9 344,-1024.33 381.738,-1005.32 405.262,-1021.06 432,-988.333 460.636,-953.287 451,-933.549 451,-888.291 451,-888.291 451,-888.291 451,-322.5 451,-220.669 300.805,-185.864 228.288,-174.994"/>
<polygon fill="#3499cd" stroke="#cde8ef" points="228.572,-171.5 218.18,-173.559 227.588,-178.43 228.572,-171.5"/>
</g>
<!-- F9
TAX -->
<g id="node11" class="node"><title>F9
TAX</title>
<ellipse fill="#ff9c34" stroke="#f89939" cx="100" cy="-1209.46" rx="28.0702" ry="24.0833"/>
<text text-anchor="middle" x="100" y="-1212.86" font-family="Times New Roman,serif" font-size="12.00" fill="white">F9</text>
<text text-anchor="middle" x="100" y="-1199.86" font-family="Times New Roman,serif" font-size="12.00" fill="white">TAX</text>
</g>
<!-- F9
TAX&#45;&gt;layer 0
model 2
linear cov -->
<g id="edge6" class="edge"><title>F9
TAX&#45;&gt;layer 0
model 2
linear cov</title>
<path fill="none" stroke="#cde8ef" d="M112.611,-1187.82C118.141,-1178.77 124.72,-1168.01 130.697,-1158.23"/>
<polygon fill="#3499cd" stroke="#cde8ef" points="133.741,-1159.96 135.969,-1149.6 127.768,-1156.31 133.741,-1159.96"/>
</g>
<!-- F10
PTRATIO -->
<g id="node12" class="node"><title>F10
PTRATIO</title>
<ellipse fill="#ff9c34" stroke="#f89939" cx="264" cy="-1209.46" rx="45.9239" ry="24.0833"/>
<text text-anchor="middle" x="264" y="-1212.86" font-family="Times New Roman,serif" font-size="12.00" fill="white">F10</text>
<text text-anchor="middle" x="264" y="-1199.86" font-family="Times New Roman,serif" font-size="12.00" fill="white">PTRATIO</text>
</g>
<!-- layer 0
model 1
linear cov -->
<g id="node16" class="node"><title>layer 0
model 1
linear cov</title>
<polygon fill="#cde8ef" stroke="#cde8ef" points="362,-1149.42 306,-1149.42 306,-1108.42 362,-1108.42 362,-1149.42"/>
<text text-anchor="middle" x="334" y="-1137.42" font-family="Times New Roman,serif" font-size="10.00">layer 0</text>
<text text-anchor="middle" x="334" y="-1126.42" font-family="Times New Roman,serif" font-size="10.00">model 1</text>
<text text-anchor="middle" x="334" y="-1115.42" font-family="Times New Roman,serif" font-size="10.00">linear cov</text>
</g>
<!-- F10
PTRATIO&#45;&gt;layer 0
model 1
linear cov -->
<g id="edge3" class="edge"><title>F10
PTRATIO&#45;&gt;layer 0
model 1
linear cov</title>
<path fill="none" stroke="#cde8ef" d="M282.759,-1187.41C291.003,-1178.16 300.792,-1167.18 309.595,-1157.3"/>
<polygon fill="#3499cd" stroke="#cde8ef" points="312.353,-1159.46 316.394,-1149.67 307.128,-1154.81 312.353,-1159.46"/>
</g>
<!-- layer 1
model 0
linear cov -->
<g id="node18" class="node"><title>layer 1
model 0
linear cov</title>
<polygon fill="#cde8ef" stroke="#cde8ef" points="185,-1068.87 129,-1068.87 129,-1027.87 185,-1027.87 185,-1068.87"/>
<text text-anchor="middle" x="157" y="-1056.87" font-family="Times New Roman,serif" font-size="10.00">layer 1</text>
<text text-anchor="middle" x="157" y="-1045.87" font-family="Times New Roman,serif" font-size="10.00">model 0</text>
<text text-anchor="middle" x="157" y="-1034.87" font-family="Times New Roman,serif" font-size="10.00">linear cov</text>
</g>
<!-- F10
PTRATIO&#45;&gt;layer 1
model 0
linear cov -->
<g id="edge8" class="edge"><title>F10
PTRATIO&#45;&gt;layer 1
model 0
linear cov</title>
<path fill="none" stroke="#cde8ef" d="M248.688,-1186.67C240.928,-1175.57 231.395,-1161.82 223,-1149.42 206.641,-1125.25 188.398,-1097.54 175.245,-1077.42"/>
<polygon fill="#3499cd" stroke="#cde8ef" points="178.16,-1075.48 169.763,-1069.02 172.299,-1079.31 178.16,-1075.48"/>
</g>
<!-- F11
B -->
<g id="node13" class="node"><title>F11
B</title>
<ellipse fill="#ff9c34" stroke="#f89939" cx="699" cy="-1209.46" rx="27" ry="24.0833"/>
<text text-anchor="middle" x="699" y="-1212.86" font-family="Times New Roman,serif" font-size="12.00" fill="white">F11</text>
<text text-anchor="middle" x="699" y="-1199.86" font-family="Times New Roman,serif" font-size="12.00" fill="white">B</text>
</g>
<!-- F12
LSTAT -->
<g id="node14" class="node"><title>F12
LSTAT</title>
<ellipse fill="#ff9c34" stroke="#f89939" cx="365" cy="-1209.46" rx="36.5405" ry="24.0833"/>
<text text-anchor="middle" x="365" y="-1212.86" font-family="Times New Roman,serif" font-size="12.00" fill="white">F12</text>
<text text-anchor="middle" x="365" y="-1199.86" font-family="Times New Roman,serif" font-size="12.00" fill="white">LSTAT</text>
</g>
<!-- F12
LSTAT&#45;&gt;layer 0
model 0
linear cov -->
<g id="edge2" class="edge"><title>F12
LSTAT&#45;&gt;layer 0
model 0
linear cov</title>
<path fill="none" stroke="#cde8ef" d="M341.436,-1190.83C327.662,-1180.53 310.022,-1167.33 294.685,-1155.86"/>
<polygon fill="#3499cd" stroke="#cde8ef" points="296.544,-1152.88 286.44,-1149.69 292.351,-1158.49 296.544,-1152.88"/>
</g>
<!-- F12
LSTAT&#45;&gt;layer 0
model 1
linear cov -->
<g id="edge4" class="edge"><title>F12
LSTAT&#45;&gt;layer 0
model 1
linear cov</title>
<path fill="none" stroke="#cde8ef" d="M356.034,-1185.74C352.759,-1177.45 349.009,-1167.94 345.542,-1159.16"/>
<polygon fill="#3499cd" stroke="#cde8ef" points="348.716,-1157.67 341.789,-1149.65 342.205,-1160.24 348.716,-1157.67"/>
</g>
<!-- layer 1
model 2
linear cov -->
<g id="node20" class="node"><title>layer 1
model 2
linear cov</title>
<polygon fill="#cde8ef" stroke="#cde8ef" points="259,-1068.87 203,-1068.87 203,-1027.87 259,-1027.87 259,-1068.87"/>
<text text-anchor="middle" x="231" y="-1056.87" font-family="Times New Roman,serif" font-size="10.00">layer 1</text>
<text text-anchor="middle" x="231" y="-1045.87" font-family="Times New Roman,serif" font-size="10.00">model 2</text>
<text text-anchor="middle" x="231" y="-1034.87" font-family="Times New Roman,serif" font-size="10.00">linear cov</text>
</g>
<!-- F12
LSTAT&#45;&gt;layer 1
model 2
linear cov -->
<g id="edge12" class="edge"><title>F12
LSTAT&#45;&gt;layer 1
model 2
linear cov</title>
<path fill="none" stroke="#cde8ef" d="M373.828,-1185.97C380.82,-1164.1 387.013,-1130.98 371,-1108.42 344.631,-1071.27 315.503,-1090.63 268.62,-1071.99"/>
<polygon fill="#3499cd" stroke="#cde8ef" points="269.891,-1068.72 259.33,-1067.88 267.063,-1075.12 269.891,-1068.72"/>
</g>
<!-- layer 0
model 0
linear cov&#45;&gt;layer 1
model 0
linear cov -->
<g id="edge7" class="edge"><title>layer 0
model 0
linear cov&#45;&gt;layer 1
model 0
linear cov</title>
<path fill="none" stroke="#cde8ef" d="M234.274,-1108.3C221.125,-1098.27 204.954,-1085.94 190.81,-1075.16"/>
<polygon fill="#3499cd" stroke="#cde8ef" points="192.829,-1072.29 182.755,-1069.01 188.584,-1077.86 192.829,-1072.29"/>
</g>
<!-- layer 1
model 1
linear cov -->
<g id="node19" class="node"><title>layer 1
model 1
linear cov</title>
<polygon fill="#cde8ef" stroke="#cde8ef" points="409,-1068.87 353,-1068.87 353,-1027.87 409,-1027.87 409,-1068.87"/>
<text text-anchor="middle" x="381" y="-1056.87" font-family="Times New Roman,serif" font-size="10.00">layer 1</text>
<text text-anchor="middle" x="381" y="-1045.87" font-family="Times New Roman,serif" font-size="10.00">model 1</text>
<text text-anchor="middle" x="381" y="-1034.87" font-family="Times New Roman,serif" font-size="10.00">linear cov</text>
</g>
<!-- layer 0
model 0
linear cov&#45;&gt;layer 1
model 1
linear cov -->
<g id="edge9" class="edge"><title>layer 0
model 0
linear cov&#45;&gt;layer 1
model 1
linear cov</title>
<path fill="none" stroke="#cde8ef" d="M288.064,-1109.7C304.743,-1098.87 326.091,-1085.02 344.12,-1073.31"/>
<polygon fill="#3499cd" stroke="#cde8ef" points="346.187,-1076.14 352.669,-1067.76 342.376,-1070.27 346.187,-1076.14"/>
</g>
<!-- layer 0
model 1
linear cov&#45;&gt;layer 1
model 1
linear cov -->
<g id="edge10" class="edge"><title>layer 0
model 1
linear cov&#45;&gt;layer 1
model 1
linear cov</title>
<path fill="none" stroke="#cde8ef" d="M345.86,-1108.1C351.357,-1098.91 357.99,-1087.83 364.006,-1077.77"/>
<polygon fill="#3499cd" stroke="#cde8ef" points="367.175,-1079.29 369.307,-1068.92 361.168,-1075.7 367.175,-1079.29"/>
</g>
<!-- layer 0
model 2
linear cov&#45;&gt;layer 1
model 2
linear cov -->
<g id="edge11" class="edge"><title>layer 0
model 2
linear cov&#45;&gt;layer 1
model 2
linear cov</title>
<path fill="none" stroke="#cde8ef" d="M168.944,-1108.1C179.245,-1098.35 191.807,-1086.46 202.927,-1075.94"/>
<polygon fill="#3499cd" stroke="#cde8ef" points="205.492,-1078.33 210.35,-1068.92 200.681,-1073.25 205.492,-1078.33"/>
</g>
<!-- layer 1
model 0
linear cov&#45;&gt;layer 2
model 1
linear cov -->
<g id="edge15" class="edge"><title>layer 1
model 0
linear cov&#45;&gt;layer 2
model 1
linear cov</title>
<path fill="none" stroke="#cde8ef" d="M128.82,-1027.96C114.022,-1017.76 95.7067,-1005.15 79.8014,-994.188"/>
<polygon fill="#3499cd" stroke="#cde8ef" points="81.4712,-991.088 71.2507,-988.297 77.4998,-996.852 81.4712,-991.088"/>
</g>
<!-- layer 1
model 1
linear cov&#45;&gt;layer 2
model 0
linear cov -->
<g id="edge13" class="edge"><title>layer 1
model 1
linear cov&#45;&gt;layer 2
model 0
linear cov</title>
<path fill="none" stroke="#cde8ef" d="M384.533,-1027.56C386.103,-1018.74 387.985,-1008.19 389.718,-998.468"/>
<polygon fill="#3499cd" stroke="#cde8ef" points="393.208,-998.833 391.517,-988.374 386.316,-997.605 393.208,-998.833"/>
</g>
<!-- layer 1
model 2
linear cov&#45;&gt;layer 2
model 2
linear cov -->
<g id="edge17" class="edge"><title>layer 1
model 2
linear cov&#45;&gt;layer 2
model 2
linear cov</title>
<path fill="none" stroke="#cde8ef" d="M233.271,-1027.56C234.281,-1018.74 235.49,-1008.19 236.604,-998.468"/>
<polygon fill="#3499cd" stroke="#cde8ef" points="240.1,-998.707 237.761,-988.374 233.145,-997.91 240.1,-998.707"/>
</g>
<!-- layer 3
model 0
linear cov -->
<g id="node24" class="node"><title>layer 3
model 0
linear cov</title>
<polygon fill="#cde8ef" stroke="#cde8ef" points="273,-907.791 217,-907.791 217,-866.791 273,-866.791 273,-907.791"/>
<text text-anchor="middle" x="245" y="-895.791" font-family="Times New Roman,serif" font-size="10.00">layer 3</text>
<text text-anchor="middle" x="245" y="-884.791" font-family="Times New Roman,serif" font-size="10.00">model 0</text>
<text text-anchor="middle" x="245" y="-873.791" font-family="Times New Roman,serif" font-size="10.00">linear cov</text>
</g>
<!-- layer 2
model 0
linear cov&#45;&gt;layer 3
model 0
linear cov -->
<g id="edge19" class="edge"><title>layer 2
model 0
linear cov&#45;&gt;layer 3
model 0
linear cov</title>
<path fill="none" stroke="#cde8ef" d="M366.786,-952.06C342.797,-939.499 308.175,-921.371 281.973,-907.651"/>
<polygon fill="#3499cd" stroke="#cde8ef" points="283.57,-904.536 273.087,-902.998 280.323,-910.738 283.57,-904.536"/>
</g>
<!-- layer 3
model 1
linear cov -->
<g id="node25" class="node"><title>layer 3
model 1
linear cov</title>
<polygon fill="#cde8ef" stroke="#cde8ef" points="127,-907.791 71,-907.791 71,-866.791 127,-866.791 127,-907.791"/>
<text text-anchor="middle" x="99" y="-895.791" font-family="Times New Roman,serif" font-size="10.00">layer 3</text>
<text text-anchor="middle" x="99" y="-884.791" font-family="Times New Roman,serif" font-size="10.00">model 1</text>
<text text-anchor="middle" x="99" y="-873.791" font-family="Times New Roman,serif" font-size="10.00">linear cov</text>
</g>
<!-- layer 2
model 1
linear cov&#45;&gt;layer 3
model 1
linear cov -->
<g id="edge21" class="edge"><title>layer 2
model 1
linear cov&#45;&gt;layer 3
model 1
linear cov</title>
<path fill="none" stroke="#cde8ef" d="M57.1312,-947.014C63.814,-937.641 71.9069,-926.29 79.1894,-916.076"/>
<polygon fill="#3499cd" stroke="#cde8ef" points="82.1117,-918.007 85.0673,-907.832 76.4121,-913.943 82.1117,-918.007"/>
</g>
<!-- layer 2
model 2
linear cov&#45;&gt;layer 3
model 0
linear cov -->
<g id="edge20" class="edge"><title>layer 2
model 2
linear cov&#45;&gt;layer 3
model 0
linear cov</title>
<path fill="none" stroke="#cde8ef" d="M241.262,-947.014C241.823,-938.203 242.495,-927.645 243.113,-917.926"/>
<polygon fill="#3499cd" stroke="#cde8ef" points="246.614,-918.035 243.756,-907.832 239.628,-917.59 246.614,-918.035"/>
</g>
<!-- layer 2
model 2
linear cov&#45;&gt;layer 3
model 1
linear cov -->
<g id="edge22" class="edge"><title>layer 2
model 2
linear cov&#45;&gt;layer 3
model 1
linear cov</title>
<path fill="none" stroke="#cde8ef" d="M211.913,-952.492C190.826,-941.569 161.345,-925.966 136,-911.333 135.91,-911.281 135.82,-911.229 135.729,-911.177"/>
<polygon fill="#3499cd" stroke="#cde8ef" points="137.551,-908.188 127.164,-906.1 133.982,-914.21 137.551,-908.188"/>
</g>
<!-- layer 3
model 0
linear cov&#45;&gt;layer 4
model 1
linear cov -->
<g id="edge25" class="edge"><title>layer 3
model 0
linear cov&#45;&gt;layer 4
model 1
linear cov</title>
<path fill="none" stroke="#cde8ef" d="M254.441,-866.421C259.183,-856.44 265.019,-844.157 270.249,-833.15"/>
<polygon fill="#3499cd" stroke="#cde8ef" points="273.516,-834.43 274.646,-823.895 267.193,-831.426 273.516,-834.43"/>
</g>
<!-- layer 3
model 1
linear cov&#45;&gt;layer 4
model 0
linear cov -->
<g id="edge23" class="edge"><title>layer 3
model 1
linear cov&#45;&gt;layer 4
model 0
linear cov</title>
<path fill="none" stroke="#cde8ef" d="M116.671,-866.421C125.997,-855.936 137.58,-842.911 147.735,-831.493"/>
<polygon fill="#3499cd" stroke="#cde8ef" points="150.461,-833.694 154.491,-823.895 145.231,-829.042 150.461,-833.694"/>
</g>
<!-- layer 4
model 0
linear cov&#45;&gt;layer 5
model 1
linear cov -->
<g id="edge29" class="edge"><title>layer 4
model 0
linear cov&#45;&gt;layer 5
model 1
linear cov</title>
<path fill="none" stroke="#cde8ef" d="M168.215,-782.389C166.532,-773.578 164.516,-763.02 162.66,-753.302"/>
<polygon fill="#3499cd" stroke="#cde8ef" points="166.046,-752.373 160.732,-743.207 159.17,-753.687 166.046,-752.373"/>
</g>
<!-- layer 4
model 1
linear cov&#45;&gt;layer 5
model 0
linear cov -->
<g id="edge27" class="edge"><title>layer 4
model 1
linear cov&#45;&gt;layer 5
model 0
linear cov</title>
<path fill="none" stroke="#cde8ef" d="M270.626,-782.389C264.364,-773.11 256.795,-761.892 249.956,-751.758"/>
<polygon fill="#3499cd" stroke="#cde8ef" points="252.681,-749.539 244.186,-743.207 246.879,-753.455 252.681,-749.539"/>
</g>
<!-- layer 6
model 0
linear cov -->
<g id="node30" class="node"><title>layer 6
model 0
linear cov</title>
<polygon fill="#cde8ef" stroke="#cde8ef" points="233,-662.625 177,-662.625 177,-621.625 233,-621.625 233,-662.625"/>
<text text-anchor="middle" x="205" y="-650.625" font-family="Times New Roman,serif" font-size="10.00">layer 6</text>
<text text-anchor="middle" x="205" y="-639.625" font-family="Times New Roman,serif" font-size="10.00">model 0</text>
<text text-anchor="middle" x="205" y="-628.625" font-family="Times New Roman,serif" font-size="10.00">linear cov</text>
</g>
<!-- layer 5
model 0
linear cov&#45;&gt;layer 6
model 0
linear cov -->
<g id="edge31" class="edge"><title>layer 5
model 0
linear cov&#45;&gt;layer 6
model 0
linear cov</title>
<path fill="none" stroke="#cde8ef" d="M224.439,-701.847C221.492,-692.943 217.953,-682.254 214.708,-672.45"/>
<polygon fill="#3499cd" stroke="#cde8ef" points="217.934,-671.059 211.469,-662.666 211.289,-673.259 217.934,-671.059"/>
</g>
<!-- layer 5
model 1
linear cov&#45;&gt;layer 6
model 0
linear cov -->
<g id="edge32" class="edge"><title>layer 5
model 1
linear cov&#45;&gt;layer 6
model 0
linear cov</title>
<path fill="none" stroke="#cde8ef" d="M169.112,-701.847C174.783,-692.568 181.639,-681.351 187.832,-671.217"/>
<polygon fill="#3499cd" stroke="#cde8ef" points="190.829,-673.024 193.058,-662.666 184.857,-669.373 190.829,-673.024"/>
</g>
<!-- layer 6
model 0
linear cov&#45;&gt;layer 7
model 0
linear cov -->
<g id="edge33" class="edge"><title>layer 6
model 0
linear cov&#45;&gt;layer 7
model 0
linear cov</title>
<path fill="none" stroke="#cde8ef" d="M199.196,-621.306C196.589,-612.401 193.458,-601.712 190.588,-591.908"/>
<polygon fill="#3499cd" stroke="#cde8ef" points="193.892,-590.738 187.722,-582.124 187.174,-592.705 193.892,-590.738"/>
</g>
<!-- layer 7
model 0
linear cov&#45;&gt;layer 8
model 0
linear cov -->
<g id="edge35" class="edge"><title>layer 7
model 0
linear cov&#45;&gt;layer 8
model 0
linear cov</title>
<path fill="none" stroke="#cde8ef" d="M182,-540.764C182,-531.953 182,-521.395 182,-511.677"/>
<polygon fill="#3499cd" stroke="#cde8ef" points="185.5,-511.583 182,-501.583 178.5,-511.583 185.5,-511.583"/>
</g>
<!-- layer 8
model 0
linear cov&#45;&gt;layer 9
model 0
linear cov -->
<g id="edge37" class="edge"><title>layer 8
model 0
linear cov&#45;&gt;layer 9
model 0
linear cov</title>
<path fill="none" stroke="#cde8ef" d="M192.346,-460.222C197.092,-451.131 202.809,-440.178 208.014,-430.207"/>
<polygon fill="#3499cd" stroke="#cde8ef" points="211.274,-431.525 212.799,-421.041 205.069,-428.286 211.274,-431.525"/>
</g>
<!-- layer 9
model 0
linear cov&#45;&gt;layer 10
model 0
linear cov -->
<g id="edge39" class="edge"><title>layer 9
model 0
linear cov&#45;&gt;layer 10
model 0
linear cov</title>
<path fill="none" stroke="#cde8ef" d="M223,-379.795C223,-371.957 223,-362.77 223,-354.16"/>
<polygon fill="#3499cd" stroke="#cde8ef" points="226.5,-354.074 223,-344.074 219.5,-354.074 226.5,-354.074"/>
</g>
<!-- layer 10
model 0
linear cov&#45;&gt;layer 11
model 0
linear cov -->
<g id="edge41" class="edge"><title>layer 10
model 0
linear cov&#45;&gt;layer 11
model 0
linear cov</title>
<path fill="none" stroke="#cde8ef" d="M214.33,-302.795C210.768,-294.699 206.572,-285.163 202.677,-276.311"/>
<polygon fill="#3499cd" stroke="#cde8ef" points="205.844,-274.817 198.612,-267.074 199.436,-277.637 205.844,-274.817"/>
</g>
<!-- layer 11
model 0
linear cov&#45;&gt;layer 12
model 0
linear cov -->
<g id="edge43" class="edge"><title>layer 11
model 0
linear cov&#45;&gt;layer 12
model 0
linear cov</title>
<path fill="none" stroke="#cde8ef" d="M190,-225.795C190,-217.957 190,-208.77 190,-200.16"/>
<polygon fill="#3499cd" stroke="#cde8ef" points="193.5,-200.074 190,-190.074 186.5,-200.074 193.5,-200.074"/>
</g>
<!-- layer 12
model 0
linear cov&#45;&gt;layer 13
model 0
linear cov -->
<g id="edge45" class="edge"><title>layer 12
model 0
linear cov&#45;&gt;layer 13
model 0
linear cov</title>
<path fill="none" stroke="#cde8ef" d="M168.455,-148.795C158.851,-140.01 147.392,-129.529 137.046,-120.067"/>
<polygon fill="#3499cd" stroke="#cde8ef" points="139.142,-117.24 129.401,-113.074 134.417,-122.406 139.142,-117.24"/>
</g>
<!-- layer 13
model 0
linear cov&#45;&gt;OUTPUT -->
<g id="edge47" class="edge"><title>layer 13
model 0
linear cov&#45;&gt;OUTPUT</title>
<path fill="none" stroke="#cde8ef" d="M108,-71.6891C108,-63.9066 108,-54.8417 108,-46.4471"/>
<polygon fill="#3499cd" stroke="#cde8ef" points="111.5,-46.3194 108,-36.3195 104.5,-46.3195 111.5,-46.3194"/>
</g>
</g>
</svg>
