<?xml version="1.0" encoding="UTF-8" standalone="no"?>
<!DOCTYPE svg PUBLIC "-//W3C//DTD SVG 1.1//EN"
 "http://www.w3.org/Graphics/SVG/1.1/DTD/svg11.dtd">
<!-- Generated by graphviz version 2.38.0 (20140413.2041)
 -->
<!-- Title: %3 Pages: 1 -->
<svg width="811pt" height="981pt"
 viewBox="0.00 0.00 811.00 981.50" xmlns="http://www.w3.org/2000/svg" xmlns:xlink="http://www.w3.org/1999/xlink">
<g id="graph0" class="graph" transform="scale(1 1) rotate(0) translate(4 977.5)">
<title>%3</title>
<polygon fill="white" stroke="none" points="-4,4 -4,-977.5 807,-977.5 807,4 -4,4"/>
<text text-anchor="middle" x="401.5" y="-955.1" font-family="Times New Roman,serif" font-size="18.00">Multilayered group method of data handling model</text>
<text text-anchor="middle" x="401.5" y="-935.1" font-family="Times New Roman,serif" font-size="18.00"> </text>
<!-- OUTPUT -->
<g id="node1" class="node"><title>OUTPUT</title>
<ellipse fill="#ff9c34" stroke="#f89939" cx="155" cy="-18" rx="38.3335" ry="18"/>
<text text-anchor="middle" x="155" y="-14.9" font-family="Times New Roman,serif" font-size="12.00" fill="white">OUTPUT</text>
</g>
<!-- F0
CRIM -->
<g id="node2" class="node"><title>F0
CRIM</title>
<ellipse fill="#ff9c34" stroke="#f89939" cx="74" cy="-411.125" rx="33.4697" ry="24.0833"/>
<text text-anchor="middle" x="74" y="-414.525" font-family="Times New Roman,serif" font-size="12.00" fill="white">F0</text>
<text text-anchor="middle" x="74" y="-401.525" font-family="Times New Roman,serif" font-size="12.00" fill="white">CRIM</text>
</g>
<!-- layer 6
model 0
linear cov -->
<g id="node30" class="node"><title>layer 6
model 0
linear cov</title>
<polygon fill="#cde8ef" stroke="#cde8ef" points="156,-347.542 100,-347.542 100,-306.542 156,-306.542 156,-347.542"/>
<text text-anchor="middle" x="128" y="-335.542" font-family="Times New Roman,serif" font-size="10.00">layer 6</text>
<text text-anchor="middle" x="128" y="-324.542" font-family="Times New Roman,serif" font-size="10.00">model 0</text>
<text text-anchor="middle" x="128" y="-313.542" font-family="Times New Roman,serif" font-size="10.00">linear cov</text>
</g>
<!-- F0
CRIM&#45;&gt;layer 6
model 0
linear cov -->
<g id="edge32" class="edge"><title>F0
CRIM&#45;&gt;layer 6
model 0
linear cov</title>
<path fill="none" stroke="#cde8ef" d="M87.9063,-388.986C94.4492,-379.041 102.346,-367.038 109.394,-356.323"/>
<polygon fill="#3499cd" stroke="#cde8ef" points="112.496,-357.977 115.068,-347.699 106.648,-354.13 112.496,-357.977"/>
</g>
<!-- layer 7
model 1
linear cov -->
<g id="node33" class="node"><title>layer 7
model 1
linear cov</title>
<polygon fill="#cde8ef" stroke="#cde8ef" points="234,-267 178,-267 178,-226 234,-226 234,-267"/>
<text text-anchor="middle" x="206" y="-255" font-family="Times New Roman,serif" font-size="10.00">layer 7</text>
<text text-anchor="middle" x="206" y="-244" font-family="Times New Roman,serif" font-size="10.00">model 1</text>
<text text-anchor="middle" x="206" y="-233" font-family="Times New Roman,serif" font-size="10.00">linear cov</text>
</g>
<!-- F0
CRIM&#45;&gt;layer 7
model 1
linear cov -->
<g id="edge38" class="edge"><title>F0
CRIM&#45;&gt;layer 7
model 1
linear cov</title>
<path fill="none" stroke="#cde8ef" d="M100.1,-395.597C123.53,-382.137 155.635,-362.522 165,-351.083 182.664,-329.509 193.436,-299.383 199.476,-277.18"/>
<polygon fill="#3499cd" stroke="#cde8ef" points="202.918,-277.847 201.998,-267.292 196.135,-276.117 202.918,-277.847"/>
</g>
<!-- F1
ZN -->
<g id="node3" class="node"><title>F1
ZN</title>
<ellipse fill="#ff9c34" stroke="#f89939" cx="55" cy="-327.042" rx="27" ry="24.0833"/>
<text text-anchor="middle" x="55" y="-330.442" font-family="Times New Roman,serif" font-size="12.00" fill="white">F1</text>
<text text-anchor="middle" x="55" y="-317.442" font-family="Times New Roman,serif" font-size="12.00" fill="white">ZN</text>
</g>
<!-- layer 7
model 0
linear cov -->
<g id="node32" class="node"><title>layer 7
model 0
linear cov</title>
<polygon fill="#cde8ef" stroke="#cde8ef" points="133,-267 77,-267 77,-226 133,-226 133,-267"/>
<text text-anchor="middle" x="105" y="-255" font-family="Times New Roman,serif" font-size="10.00">layer 7</text>
<text text-anchor="middle" x="105" y="-244" font-family="Times New Roman,serif" font-size="10.00">model 0</text>
<text text-anchor="middle" x="105" y="-233" font-family="Times New Roman,serif" font-size="10.00">linear cov</text>
</g>
<!-- F1
ZN&#45;&gt;layer 7
model 0
linear cov -->
<g id="edge36" class="edge"><title>F1
ZN&#45;&gt;layer 7
model 0
linear cov</title>
<path fill="none" stroke="#cde8ef" d="M67.8762,-305.815C73.7396,-296.605 80.777,-285.55 87.1405,-275.554"/>
<polygon fill="#3499cd" stroke="#cde8ef" points="90.0951,-277.43 92.5129,-267.115 84.1901,-273.671 90.0951,-277.43"/>
</g>
<!-- F2
INDUS -->
<g id="node4" class="node"><title>F2
INDUS</title>
<ellipse fill="#ff9c34" stroke="#f89939" cx="534" cy="-901.458" rx="37.4533" ry="24.0833"/>
<text text-anchor="middle" x="534" y="-904.858" font-family="Times New Roman,serif" font-size="12.00" fill="white">F2</text>
<text text-anchor="middle" x="534" y="-891.858" font-family="Times New Roman,serif" font-size="12.00" fill="white">INDUS</text>
</g>
<!-- F3
CHAS -->
<g id="node5" class="node"><title>F3
CHAS</title>
<ellipse fill="#ff9c34" stroke="#f89939" cx="623" cy="-901.458" rx="33.8824" ry="24.0833"/>
<text text-anchor="middle" x="623" y="-904.858" font-family="Times New Roman,serif" font-size="12.00" fill="white">F3</text>
<text text-anchor="middle" x="623" y="-891.858" font-family="Times New Roman,serif" font-size="12.00" fill="white">CHAS</text>
</g>
<!-- F4
NOX -->
<g id="node6" class="node"><title>F4
NOX</title>
<ellipse fill="#ff9c34" stroke="#f89939" cx="271" cy="-495.208" rx="30.3115" ry="24.0833"/>
<text text-anchor="middle" x="271" y="-498.608" font-family="Times New Roman,serif" font-size="12.00" fill="white">F4</text>
<text text-anchor="middle" x="271" y="-485.608" font-family="Times New Roman,serif" font-size="12.00" fill="white">NOX</text>
</g>
<!-- layer 5
model 1
linear cov -->
<g id="node29" class="node"><title>layer 5
model 1
linear cov</title>
<polygon fill="#cde8ef" stroke="#cde8ef" points="268,-431.625 212,-431.625 212,-390.625 268,-390.625 268,-431.625"/>
<text text-anchor="middle" x="240" y="-419.625" font-family="Times New Roman,serif" font-size="10.00">layer 5</text>
<text text-anchor="middle" x="240" y="-408.625" font-family="Times New Roman,serif" font-size="10.00">model 1</text>
<text text-anchor="middle" x="240" y="-397.625" font-family="Times New Roman,serif" font-size="10.00">linear cov</text>
</g>
<!-- F4
NOX&#45;&gt;layer 5
model 1
linear cov -->
<g id="edge30" class="edge"><title>F4
NOX&#45;&gt;layer 5
model 1
linear cov</title>
<path fill="none" stroke="#cde8ef" d="M262.529,-471.779C258.98,-462.38 254.806,-451.329 251.022,-441.31"/>
<polygon fill="#3499cd" stroke="#cde8ef" points="254.213,-439.852 247.406,-431.734 247.664,-442.325 254.213,-439.852"/>
</g>
<!-- F5
RM -->
<g id="node7" class="node"><title>F5
RM</title>
<ellipse fill="#ff9c34" stroke="#f89939" cx="377" cy="-901.458" rx="27" ry="24.0833"/>
<text text-anchor="middle" x="377" y="-904.858" font-family="Times New Roman,serif" font-size="12.00" fill="white">F5</text>
<text text-anchor="middle" x="377" y="-891.858" font-family="Times New Roman,serif" font-size="12.00" fill="white">RM</text>
</g>
<!-- layer 0
model 0
linear cov -->
<g id="node15" class="node"><title>layer 0
model 0
linear cov</title>
<polygon fill="#cde8ef" stroke="#cde8ef" points="309,-841.416 253,-841.416 253,-800.416 309,-800.416 309,-841.416"/>
<text text-anchor="middle" x="281" y="-829.416" font-family="Times New Roman,serif" font-size="10.00">layer 0</text>
<text text-anchor="middle" x="281" y="-818.416" font-family="Times New Roman,serif" font-size="10.00">model 0</text>
<text text-anchor="middle" x="281" y="-807.416" font-family="Times New Roman,serif" font-size="10.00">linear cov</text>
</g>
<!-- F5
RM&#45;&gt;layer 0
model 0
linear cov -->
<g id="edge1" class="edge"><title>F5
RM&#45;&gt;layer 0
model 0
linear cov</title>
<path fill="none" stroke="#cde8ef" d="M357.573,-884.564C344.814,-874.125 327.821,-860.222 313.084,-848.166"/>
<polygon fill="#3499cd" stroke="#cde8ef" points="315.127,-845.315 305.171,-841.691 310.694,-850.732 315.127,-845.315"/>
</g>
<!-- layer 0
model 2
linear cov -->
<g id="node17" class="node"><title>layer 0
model 2
linear cov</title>
<polygon fill="#cde8ef" stroke="#cde8ef" points="421,-841.416 365,-841.416 365,-800.416 421,-800.416 421,-841.416"/>
<text text-anchor="middle" x="393" y="-829.416" font-family="Times New Roman,serif" font-size="10.00">layer 0</text>
<text text-anchor="middle" x="393" y="-818.416" font-family="Times New Roman,serif" font-size="10.00">model 2</text>
<text text-anchor="middle" x="393" y="-807.416" font-family="Times New Roman,serif" font-size="10.00">linear cov</text>
</g>
<!-- F5
RM&#45;&gt;layer 0
model 2
linear cov -->
<g id="edge5" class="edge"><title>F5
RM&#45;&gt;layer 0
model 2
linear cov</title>
<path fill="none" stroke="#cde8ef" d="M381.628,-877.74C383.281,-869.624 385.17,-860.352 386.927,-851.728"/>
<polygon fill="#3499cd" stroke="#cde8ef" points="390.413,-852.148 388.98,-841.65 383.554,-850.75 390.413,-852.148"/>
</g>
<!-- F6
AGE -->
<g id="node8" class="node"><title>F6
AGE</title>
<ellipse fill="#ff9c34" stroke="#f89939" cx="703" cy="-901.458" rx="28.0702" ry="24.0833"/>
<text text-anchor="middle" x="703" y="-904.858" font-family="Times New Roman,serif" font-size="12.00" fill="white">F6</text>
<text text-anchor="middle" x="703" y="-891.858" font-family="Times New Roman,serif" font-size="12.00" fill="white">AGE</text>
</g>
<!-- F7
DIS -->
<g id="node9" class="node"><title>F7
DIS</title>
<ellipse fill="#ff9c34" stroke="#f89939" cx="197" cy="-579.291" rx="27" ry="24.0833"/>
<text text-anchor="middle" x="197" y="-582.691" font-family="Times New Roman,serif" font-size="12.00" fill="white">F7</text>
<text text-anchor="middle" x="197" y="-569.691" font-family="Times New Roman,serif" font-size="12.00" fill="white">DIS</text>
</g>
<!-- layer 4
model 0
linear cov -->
<g id="node26" class="node"><title>layer 4
model 0
linear cov</title>
<polygon fill="#cde8ef" stroke="#cde8ef" points="223,-515.708 167,-515.708 167,-474.708 223,-474.708 223,-515.708"/>
<text text-anchor="middle" x="195" y="-503.708" font-family="Times New Roman,serif" font-size="10.00">layer 4</text>
<text text-anchor="middle" x="195" y="-492.708" font-family="Times New Roman,serif" font-size="10.00">model 0</text>
<text text-anchor="middle" x="195" y="-481.708" font-family="Times New Roman,serif" font-size="10.00">linear cov</text>
</g>
<!-- F7
DIS&#45;&gt;layer 4
model 0
linear cov -->
<g id="edge24" class="edge"><title>F7
DIS&#45;&gt;layer 4
model 0
linear cov</title>
<path fill="none" stroke="#cde8ef" d="M196.432,-554.989C196.214,-546.036 195.962,-535.687 195.731,-526.192"/>
<polygon fill="#3499cd" stroke="#cde8ef" points="199.224,-525.866 195.481,-515.954 192.226,-526.036 199.224,-525.866"/>
</g>
<!-- layer 5
model 0
linear cov -->
<g id="node28" class="node"><title>layer 5
model 0
linear cov</title>
<polygon fill="#cde8ef" stroke="#cde8ef" points="181,-431.625 125,-431.625 125,-390.625 181,-390.625 181,-431.625"/>
<text text-anchor="middle" x="153" y="-419.625" font-family="Times New Roman,serif" font-size="10.00">layer 5</text>
<text text-anchor="middle" x="153" y="-408.625" font-family="Times New Roman,serif" font-size="10.00">model 0</text>
<text text-anchor="middle" x="153" y="-397.625" font-family="Times New Roman,serif" font-size="10.00">linear cov</text>
</g>
<!-- F7
DIS&#45;&gt;layer 5
model 0
linear cov -->
<g id="edge28" class="edge"><title>F7
DIS&#45;&gt;layer 5
model 0
linear cov</title>
<path fill="none" stroke="#cde8ef" d="M180.956,-559.724C172.473,-548.729 162.837,-534.083 158,-519.25 149.766,-493.998 149.156,-463.624 150.23,-441.678"/>
<polygon fill="#3499cd" stroke="#cde8ef" points="153.727,-441.842 150.867,-431.641 146.741,-441.399 153.727,-441.842"/>
</g>
<!-- F8
RAD -->
<g id="node10" class="node"><title>F8
RAD</title>
<ellipse fill="#ff9c34" stroke="#f89939" cx="216" cy="-740.375" rx="28.9828" ry="24.0833"/>
<text text-anchor="middle" x="216" y="-743.775" font-family="Times New Roman,serif" font-size="12.00" fill="white">F8</text>
<text text-anchor="middle" x="216" y="-730.775" font-family="Times New Roman,serif" font-size="12.00" fill="white">RAD</text>
</g>
<!-- layer 2
model 0
linear cov -->
<g id="node21" class="node"><title>layer 2
model 0
linear cov</title>
<polygon fill="#cde8ef" stroke="#cde8ef" points="169,-680.333 113,-680.333 113,-639.333 169,-639.333 169,-680.333"/>
<text text-anchor="middle" x="141" y="-668.333" font-family="Times New Roman,serif" font-size="10.00">layer 2</text>
<text text-anchor="middle" x="141" y="-657.333" font-family="Times New Roman,serif" font-size="10.00">model 0</text>
<text text-anchor="middle" x="141" y="-646.333" font-family="Times New Roman,serif" font-size="10.00">linear cov</text>
</g>
<!-- F8
RAD&#45;&gt;layer 2
model 0
linear cov -->
<g id="edge14" class="edge"><title>F8
RAD&#45;&gt;layer 2
model 0
linear cov</title>
<path fill="none" stroke="#cde8ef" d="M198.226,-720.761C188.794,-710.884 177.034,-698.568 166.632,-687.675"/>
<polygon fill="#3499cd" stroke="#cde8ef" points="169.13,-685.224 159.693,-680.409 164.068,-690.058 169.13,-685.224"/>
</g>
<!-- layer 2
model 1
linear cov -->
<g id="node22" class="node"><title>layer 2
model 1
linear cov</title>
<polygon fill="#cde8ef" stroke="#cde8ef" points="411,-680.333 355,-680.333 355,-639.333 411,-639.333 411,-680.333"/>
<text text-anchor="middle" x="383" y="-668.333" font-family="Times New Roman,serif" font-size="10.00">layer 2</text>
<text text-anchor="middle" x="383" y="-657.333" font-family="Times New Roman,serif" font-size="10.00">model 1</text>
<text text-anchor="middle" x="383" y="-646.333" font-family="Times New Roman,serif" font-size="10.00">linear cov</text>
</g>
<!-- F8
RAD&#45;&gt;layer 2
model 1
linear cov -->
<g id="edge16" class="edge"><title>F8
RAD&#45;&gt;layer 2
model 1
linear cov</title>
<path fill="none" stroke="#cde8ef" d="M238.587,-724.907C243.582,-721.926 248.906,-718.912 254,-716.333 291.333,-697.43 302.681,-697.148 341,-680.333 342.38,-679.727 343.784,-679.106 345.199,-678.474"/>
<polygon fill="#3499cd" stroke="#cde8ef" points="346.942,-681.527 354.607,-674.213 344.054,-675.15 346.942,-681.527"/>
</g>
<!-- layer 2
model 2
linear cov -->
<g id="node23" class="node"><title>layer 2
model 2
linear cov</title>
<polygon fill="#cde8ef" stroke="#cde8ef" points="297,-680.333 241,-680.333 241,-639.333 297,-639.333 297,-680.333"/>
<text text-anchor="middle" x="269" y="-668.333" font-family="Times New Roman,serif" font-size="10.00">layer 2</text>
<text text-anchor="middle" x="269" y="-657.333" font-family="Times New Roman,serif" font-size="10.00">model 2</text>
<text text-anchor="middle" x="269" y="-646.333" font-family="Times New Roman,serif" font-size="10.00">linear cov</text>
</g>
<!-- F8
RAD&#45;&gt;layer 2
model 2
linear cov -->
<g id="edge18" class="edge"><title>F8
RAD&#45;&gt;layer 2
model 2
linear cov</title>
<path fill="none" stroke="#cde8ef" d="M229.649,-719.148C235.864,-709.938 243.324,-698.883 250.069,-688.887"/>
<polygon fill="#3499cd" stroke="#cde8ef" points="253.071,-690.695 255.764,-680.448 247.269,-686.78 253.071,-690.695"/>
</g>
<!-- layer 4
model 1
linear cov -->
<g id="node27" class="node"><title>layer 4
model 1
linear cov</title>
<polygon fill="#cde8ef" stroke="#cde8ef" points="111,-515.708 55,-515.708 55,-474.708 111,-474.708 111,-515.708"/>
<text text-anchor="middle" x="83" y="-503.708" font-family="Times New Roman,serif" font-size="10.00">layer 4</text>
<text text-anchor="middle" x="83" y="-492.708" font-family="Times New Roman,serif" font-size="10.00">model 1</text>
<text text-anchor="middle" x="83" y="-481.708" font-family="Times New Roman,serif" font-size="10.00">linear cov</text>
</g>
<!-- F8
RAD&#45;&gt;layer 4
model 1
linear cov -->
<g id="edge26" class="edge"><title>F8
RAD&#45;&gt;layer 4
model 1
linear cov</title>
<path fill="none" stroke="#cde8ef" d="M193.292,-725.138C188.303,-722.143 183.013,-719.065 178,-716.333 145.884,-698.833 126.645,-709.054 104,-680.333 68.9656,-635.898 72.1576,-565.614 77.5878,-525.97"/>
<polygon fill="#3499cd" stroke="#cde8ef" points="81.0786,-526.293 79.11,-515.882 74.157,-525.248 81.0786,-526.293"/>
</g>
<!-- layer 8
model 0
linear cov -->
<g id="node34" class="node"><title>layer 8
model 0
linear cov</title>
<polygon fill="#cde8ef" stroke="#cde8ef" points="234,-190 178,-190 178,-149 234,-149 234,-190"/>
<text text-anchor="middle" x="206" y="-178" font-family="Times New Roman,serif" font-size="10.00">layer 8</text>
<text text-anchor="middle" x="206" y="-167" font-family="Times New Roman,serif" font-size="10.00">model 0</text>
<text text-anchor="middle" x="206" y="-156" font-family="Times New Roman,serif" font-size="10.00">linear cov</text>
</g>
<!-- F8
RAD&#45;&gt;layer 8
model 0
linear cov -->
<g id="edge40" class="edge"><title>F8
RAD&#45;&gt;layer 8
model 0
linear cov</title>
<path fill="none" stroke="#cde8ef" d="M238.958,-725.017C264.945,-708.66 303.966,-683.743 306,-680.333 367.293,-577.585 329,-531.766 329,-412.125 329,-412.125 329,-412.125 329,-326.042 329,-269.788 278.889,-221.977 242.637,-194.75"/>
<polygon fill="#3499cd" stroke="#cde8ef" points="244.359,-191.673 234.219,-188.604 240.232,-197.327 244.359,-191.673"/>
</g>
<!-- layer 8
model 1
linear cov -->
<g id="node35" class="node"><title>layer 8
model 1
linear cov</title>
<polygon fill="#cde8ef" stroke="#cde8ef" points="133,-190 77,-190 77,-149 133,-149 133,-190"/>
<text text-anchor="middle" x="105" y="-178" font-family="Times New Roman,serif" font-size="10.00">layer 8</text>
<text text-anchor="middle" x="105" y="-167" font-family="Times New Roman,serif" font-size="10.00">model 1</text>
<text text-anchor="middle" x="105" y="-156" font-family="Times New Roman,serif" font-size="10.00">linear cov</text>
</g>
<!-- F8
RAD&#45;&gt;layer 8
model 1
linear cov -->
<g id="edge42" class="edge"><title>F8
RAD&#45;&gt;layer 8
model 1
linear cov</title>
<path fill="none" stroke="#cde8ef" d="M193.49,-724.75C188.49,-721.779 183.144,-718.809 178,-716.333 136.189,-696.21 117.653,-707.45 80,-680.333 33.8027,-647.062 0,-637.223 0,-580.291 0,-580.291 0,-580.291 0,-326.042 0,-273.33 41.938,-225.12 72.8053,-196.775"/>
<polygon fill="#3499cd" stroke="#cde8ef" points="75.2565,-199.278 80.3822,-190.006 70.5929,-194.058 75.2565,-199.278"/>
</g>
<!-- F9
TAX -->
<g id="node11" class="node"><title>F9
TAX</title>
<ellipse fill="#ff9c34" stroke="#f89939" cx="450" cy="-901.458" rx="28.0702" ry="24.0833"/>
<text text-anchor="middle" x="450" y="-904.858" font-family="Times New Roman,serif" font-size="12.00" fill="white">F9</text>
<text text-anchor="middle" x="450" y="-891.858" font-family="Times New Roman,serif" font-size="12.00" fill="white">TAX</text>
</g>
<!-- F9
TAX&#45;&gt;layer 0
model 2
linear cov -->
<g id="edge6" class="edge"><title>F9
TAX&#45;&gt;layer 0
model 2
linear cov</title>
<path fill="none" stroke="#cde8ef" d="M435.616,-880.639C428.814,-871.266 420.577,-859.915 413.164,-849.701"/>
<polygon fill="#3499cd" stroke="#cde8ef" points="415.888,-847.495 407.181,-841.457 410.222,-851.606 415.888,-847.495"/>
</g>
<!-- F10
PTRATIO -->
<g id="node12" class="node"><title>F10
PTRATIO</title>
<ellipse fill="#ff9c34" stroke="#f89939" cx="286" cy="-901.458" rx="45.9239" ry="24.0833"/>
<text text-anchor="middle" x="286" y="-904.858" font-family="Times New Roman,serif" font-size="12.00" fill="white">F10</text>
<text text-anchor="middle" x="286" y="-891.858" font-family="Times New Roman,serif" font-size="12.00" fill="white">PTRATIO</text>
</g>
<!-- layer 0
model 1
linear cov -->
<g id="node16" class="node"><title>layer 0
model 1
linear cov</title>
<polygon fill="#cde8ef" stroke="#cde8ef" points="197,-841.416 141,-841.416 141,-800.416 197,-800.416 197,-841.416"/>
<text text-anchor="middle" x="169" y="-829.416" font-family="Times New Roman,serif" font-size="10.00">layer 0</text>
<text text-anchor="middle" x="169" y="-818.416" font-family="Times New Roman,serif" font-size="10.00">model 1</text>
<text text-anchor="middle" x="169" y="-807.416" font-family="Times New Roman,serif" font-size="10.00">linear cov</text>
</g>
<!-- F10
PTRATIO&#45;&gt;layer 0
model 1
linear cov -->
<g id="edge3" class="edge"><title>F10
PTRATIO&#45;&gt;layer 0
model 1
linear cov</title>
<path fill="none" stroke="#cde8ef" d="M258.569,-882.043C242.809,-871.464 222.812,-858.04 205.712,-846.561"/>
<polygon fill="#3499cd" stroke="#cde8ef" points="207.326,-843.429 197.072,-840.761 203.424,-849.241 207.326,-843.429"/>
</g>
<!-- layer 1
model 0
linear cov -->
<g id="node18" class="node"><title>layer 1
model 0
linear cov</title>
<polygon fill="#cde8ef" stroke="#cde8ef" points="393,-760.875 337,-760.875 337,-719.875 393,-719.875 393,-760.875"/>
<text text-anchor="middle" x="365" y="-748.875" font-family="Times New Roman,serif" font-size="10.00">layer 1</text>
<text text-anchor="middle" x="365" y="-737.875" font-family="Times New Roman,serif" font-size="10.00">model 0</text>
<text text-anchor="middle" x="365" y="-726.875" font-family="Times New Roman,serif" font-size="10.00">linear cov</text>
</g>
<!-- F10
PTRATIO&#45;&gt;layer 1
model 0
linear cov -->
<g id="edge8" class="edge"><title>F10
PTRATIO&#45;&gt;layer 1
model 0
linear cov</title>
<path fill="none" stroke="#cde8ef" d="M298.462,-878.189C304.511,-867.198 311.795,-853.695 318,-841.416 329.976,-817.72 342.735,-790.415 351.933,-770.324"/>
<polygon fill="#3499cd" stroke="#cde8ef" points="355.18,-771.639 356.144,-761.088 348.811,-768.736 355.18,-771.639"/>
</g>
<!-- F11
B -->
<g id="node13" class="node"><title>F11
B</title>
<ellipse fill="#ff9c34" stroke="#f89939" cx="776" cy="-901.458" rx="27" ry="24.0833"/>
<text text-anchor="middle" x="776" y="-904.858" font-family="Times New Roman,serif" font-size="12.00" fill="white">F11</text>
<text text-anchor="middle" x="776" y="-891.858" font-family="Times New Roman,serif" font-size="12.00" fill="white">B</text>
</g>
<!-- F12
LSTAT -->
<g id="node14" class="node"><title>F12
LSTAT</title>
<ellipse fill="#ff9c34" stroke="#f89939" cx="185" cy="-901.458" rx="36.5405" ry="24.0833"/>
<text text-anchor="middle" x="185" y="-904.858" font-family="Times New Roman,serif" font-size="12.00" fill="white">F12</text>
<text text-anchor="middle" x="185" y="-891.858" font-family="Times New Roman,serif" font-size="12.00" fill="white">LSTAT</text>
</g>
<!-- F12
LSTAT&#45;&gt;layer 0
model 0
linear cov -->
<g id="edge2" class="edge"><title>F12
LSTAT&#45;&gt;layer 0
model 0
linear cov</title>
<path fill="none" stroke="#cde8ef" d="M207.266,-882.241C219.675,-872.089 235.341,-859.272 249.039,-848.065"/>
<polygon fill="#3499cd" stroke="#cde8ef" points="251.314,-850.726 256.837,-841.685 246.881,-845.308 251.314,-850.726"/>
</g>
<!-- F12
LSTAT&#45;&gt;layer 0
model 1
linear cov -->
<g id="edge4" class="edge"><title>F12
LSTAT&#45;&gt;layer 0
model 1
linear cov</title>
<path fill="none" stroke="#cde8ef" d="M180.286,-877.318C178.635,-869.211 176.757,-859.994 175.014,-851.437"/>
<polygon fill="#3499cd" stroke="#cde8ef" points="178.404,-850.545 172.978,-841.445 171.545,-851.942 178.404,-850.545"/>
</g>
<!-- layer 1
model 2
linear cov -->
<g id="node20" class="node"><title>layer 1
model 2
linear cov</title>
<polygon fill="#cde8ef" stroke="#cde8ef" points="319,-760.875 263,-760.875 263,-719.875 319,-719.875 319,-760.875"/>
<text text-anchor="middle" x="291" y="-748.875" font-family="Times New Roman,serif" font-size="10.00">layer 1</text>
<text text-anchor="middle" x="291" y="-737.875" font-family="Times New Roman,serif" font-size="10.00">model 2</text>
<text text-anchor="middle" x="291" y="-726.875" font-family="Times New Roman,serif" font-size="10.00">linear cov</text>
</g>
<!-- F12
LSTAT&#45;&gt;layer 1
model 2
linear cov -->
<g id="edge12" class="edge"><title>F12
LSTAT&#45;&gt;layer 1
model 2
linear cov</title>
<path fill="none" stroke="#cde8ef" d="M196.814,-878.451C208.163,-857.812 226.172,-826.332 244,-800.416 251.31,-789.791 259.947,-778.607 267.81,-768.866"/>
<polygon fill="#3499cd" stroke="#cde8ef" points="270.568,-771.023 274.187,-761.066 265.148,-766.592 270.568,-771.023"/>
</g>
<!-- layer 0
model 0
linear cov&#45;&gt;layer 1
model 0
linear cov -->
<g id="edge7" class="edge"><title>layer 0
model 0
linear cov&#45;&gt;layer 1
model 0
linear cov</title>
<path fill="none" stroke="#cde8ef" d="M302.197,-800.097C312.622,-790.349 325.335,-778.462 336.589,-767.94"/>
<polygon fill="#3499cd" stroke="#cde8ef" points="339.187,-770.302 344.101,-760.916 334.406,-765.189 339.187,-770.302"/>
</g>
<!-- layer 1
model 1
linear cov -->
<g id="node19" class="node"><title>layer 1
model 1
linear cov</title>
<polygon fill="#cde8ef" stroke="#cde8ef" points="169,-760.875 113,-760.875 113,-719.875 169,-719.875 169,-760.875"/>
<text text-anchor="middle" x="141" y="-748.875" font-family="Times New Roman,serif" font-size="10.00">layer 1</text>
<text text-anchor="middle" x="141" y="-737.875" font-family="Times New Roman,serif" font-size="10.00">model 1</text>
<text text-anchor="middle" x="141" y="-726.875" font-family="Times New Roman,serif" font-size="10.00">linear cov</text>
</g>
<!-- layer 0
model 0
linear cov&#45;&gt;layer 1
model 1
linear cov -->
<g id="edge9" class="edge"><title>layer 0
model 0
linear cov&#45;&gt;layer 1
model 1
linear cov</title>
<path fill="none" stroke="#cde8ef" d="M252.759,-805.31C231.913,-794.382 202.951,-778.888 178,-764.416 177.91,-764.364 177.82,-764.312 177.73,-764.259"/>
<polygon fill="#3499cd" stroke="#cde8ef" points="179.555,-761.273 169.171,-759.171 175.978,-767.29 179.555,-761.273"/>
</g>
<!-- layer 0
model 1
linear cov&#45;&gt;layer 1
model 1
linear cov -->
<g id="edge10" class="edge"><title>layer 0
model 1
linear cov&#45;&gt;layer 1
model 1
linear cov</title>
<path fill="none" stroke="#cde8ef" d="M161.934,-800.097C158.727,-791.099 154.869,-780.278 151.344,-770.391"/>
<polygon fill="#3499cd" stroke="#cde8ef" points="154.621,-769.16 147.966,-760.916 148.028,-771.51 154.621,-769.16"/>
</g>
<!-- layer 0
model 2
linear cov&#45;&gt;layer 1
model 2
linear cov -->
<g id="edge11" class="edge"><title>layer 0
model 2
linear cov&#45;&gt;layer 1
model 2
linear cov</title>
<path fill="none" stroke="#cde8ef" d="M367.524,-800.3C354.502,-790.272 338.489,-777.942 324.482,-767.156"/>
<polygon fill="#3499cd" stroke="#cde8ef" points="326.563,-764.341 316.505,-761.014 322.292,-769.888 326.563,-764.341"/>
</g>
<!-- layer 1
model 0
linear cov&#45;&gt;layer 2
model 1
linear cov -->
<g id="edge15" class="edge"><title>layer 1
model 0
linear cov&#45;&gt;layer 2
model 1
linear cov</title>
<path fill="none" stroke="#cde8ef" d="M369.542,-719.555C371.583,-710.651 374.033,-699.962 376.279,-690.158"/>
<polygon fill="#3499cd" stroke="#cde8ef" points="379.699,-690.903 378.522,-680.374 372.876,-689.339 379.699,-690.903"/>
</g>
<!-- layer 1
model 1
linear cov&#45;&gt;layer 2
model 0
linear cov -->
<g id="edge13" class="edge"><title>layer 1
model 1
linear cov&#45;&gt;layer 2
model 0
linear cov</title>
<path fill="none" stroke="#cde8ef" d="M141,-719.555C141,-710.745 141,-700.187 141,-690.468"/>
<polygon fill="#3499cd" stroke="#cde8ef" points="144.5,-690.374 141,-680.374 137.5,-690.374 144.5,-690.374"/>
</g>
<!-- layer 1
model 2
linear cov&#45;&gt;layer 2
model 2
linear cov -->
<g id="edge17" class="edge"><title>layer 1
model 2
linear cov&#45;&gt;layer 2
model 2
linear cov</title>
<path fill="none" stroke="#cde8ef" d="M285.448,-719.555C282.954,-710.651 279.96,-699.962 277.214,-690.158"/>
<polygon fill="#3499cd" stroke="#cde8ef" points="280.541,-689.059 274.474,-680.374 273.801,-690.947 280.541,-689.059"/>
</g>
<!-- layer 3
model 0
linear cov -->
<g id="node24" class="node"><title>layer 3
model 0
linear cov</title>
<polygon fill="#cde8ef" stroke="#cde8ef" points="152,-599.791 96,-599.791 96,-558.791 152,-558.791 152,-599.791"/>
<text text-anchor="middle" x="124" y="-587.791" font-family="Times New Roman,serif" font-size="10.00">layer 3</text>
<text text-anchor="middle" x="124" y="-576.791" font-family="Times New Roman,serif" font-size="10.00">model 0</text>
<text text-anchor="middle" x="124" y="-565.791" font-family="Times New Roman,serif" font-size="10.00">linear cov</text>
</g>
<!-- layer 2
model 0
linear cov&#45;&gt;layer 3
model 0
linear cov -->
<g id="edge19" class="edge"><title>layer 2
model 0
linear cov&#45;&gt;layer 3
model 0
linear cov</title>
<path fill="none" stroke="#cde8ef" d="M136.71,-639.014C134.783,-630.109 132.469,-619.42 130.347,-609.617"/>
<polygon fill="#3499cd" stroke="#cde8ef" points="133.766,-608.866 128.23,-599.832 126.924,-610.346 133.766,-608.866"/>
</g>
<!-- layer 3
model 1
linear cov -->
<g id="node25" class="node"><title>layer 3
model 1
linear cov</title>
<polygon fill="#cde8ef" stroke="#cde8ef" points="298,-599.791 242,-599.791 242,-558.791 298,-558.791 298,-599.791"/>
<text text-anchor="middle" x="270" y="-587.791" font-family="Times New Roman,serif" font-size="10.00">layer 3</text>
<text text-anchor="middle" x="270" y="-576.791" font-family="Times New Roman,serif" font-size="10.00">model 1</text>
<text text-anchor="middle" x="270" y="-565.791" font-family="Times New Roman,serif" font-size="10.00">linear cov</text>
</g>
<!-- layer 2
model 1
linear cov&#45;&gt;layer 3
model 1
linear cov -->
<g id="edge21" class="edge"><title>layer 2
model 1
linear cov&#45;&gt;layer 3
model 1
linear cov</title>
<path fill="none" stroke="#cde8ef" d="M354.777,-639.216C340.215,-629.095 322.278,-616.628 306.658,-605.771"/>
<polygon fill="#3499cd" stroke="#cde8ef" points="308.464,-602.764 298.255,-599.93 304.469,-608.512 308.464,-602.764"/>
</g>
<!-- layer 2
model 2
linear cov&#45;&gt;layer 3
model 0
linear cov -->
<g id="edge20" class="edge"><title>layer 2
model 2
linear cov&#45;&gt;layer 3
model 0
linear cov</title>
<path fill="none" stroke="#cde8ef" d="M240.692,-645.083C218.707,-634.214 187.59,-618.411 161,-603.333 160.909,-603.282 160.819,-603.23 160.728,-603.179"/>
<polygon fill="#3499cd" stroke="#cde8ef" points="162.535,-600.181 152.138,-598.146 158.997,-606.221 162.535,-600.181"/>
</g>
<!-- layer 2
model 2
linear cov&#45;&gt;layer 3
model 1
linear cov -->
<g id="edge22" class="edge"><title>layer 2
model 2
linear cov&#45;&gt;layer 3
model 1
linear cov</title>
<path fill="none" stroke="#cde8ef" d="M269.252,-639.014C269.365,-630.203 269.499,-619.645 269.623,-609.926"/>
<polygon fill="#3499cd" stroke="#cde8ef" points="273.124,-609.876 269.751,-599.832 266.124,-609.787 273.124,-609.876"/>
</g>
<!-- layer 3
model 0
linear cov&#45;&gt;layer 4
model 1
linear cov -->
<g id="edge25" class="edge"><title>layer 3
model 0
linear cov&#45;&gt;layer 4
model 1
linear cov</title>
<path fill="none" stroke="#cde8ef" d="M114.075,-558.421C109.089,-548.44 102.954,-536.157 97.4563,-525.15"/>
<polygon fill="#3499cd" stroke="#cde8ef" points="100.433,-523.277 92.8336,-515.895 94.171,-526.405 100.433,-523.277"/>
</g>
<!-- layer 3
model 1
linear cov&#45;&gt;layer 4
model 0
linear cov -->
<g id="edge23" class="edge"><title>layer 3
model 1
linear cov&#45;&gt;layer 4
model 0
linear cov</title>
<path fill="none" stroke="#cde8ef" d="M251.845,-558.421C242.264,-547.936 230.363,-534.911 219.93,-523.493"/>
<polygon fill="#3499cd" stroke="#cde8ef" points="222.317,-520.917 212.988,-515.895 217.15,-525.639 222.317,-520.917"/>
</g>
<!-- layer 4
model 0
linear cov&#45;&gt;layer 5
model 1
linear cov -->
<g id="edge29" class="edge"><title>layer 4
model 0
linear cov&#45;&gt;layer 5
model 1
linear cov</title>
<path fill="none" stroke="#cde8ef" d="M205.893,-474.338C211.421,-464.256 218.235,-451.826 224.316,-440.734"/>
<polygon fill="#3499cd" stroke="#cde8ef" points="227.469,-442.263 229.207,-431.812 221.331,-438.898 227.469,-442.263"/>
</g>
<!-- layer 4
model 1
linear cov&#45;&gt;layer 5
model 0
linear cov -->
<g id="edge27" class="edge"><title>layer 4
model 1
linear cov&#45;&gt;layer 5
model 0
linear cov</title>
<path fill="none" stroke="#cde8ef" d="M99.945,-474.338C108.801,-463.953 119.781,-451.078 129.451,-439.739"/>
<polygon fill="#3499cd" stroke="#cde8ef" points="132.385,-441.692 136.211,-431.812 127.059,-437.15 132.385,-441.692"/>
</g>
<!-- layer 5
model 0
linear cov&#45;&gt;layer 6
model 0
linear cov -->
<g id="edge31" class="edge"><title>layer 5
model 0
linear cov&#45;&gt;layer 6
model 0
linear cov</title>
<path fill="none" stroke="#cde8ef" d="M146.948,-390.255C143.939,-380.374 140.243,-368.239 136.917,-357.318"/>
<polygon fill="#3499cd" stroke="#cde8ef" points="140.258,-356.275 133.996,-347.729 133.562,-358.315 140.258,-356.275"/>
</g>
<!-- layer 6
model 1
linear cov -->
<g id="node31" class="node"><title>layer 6
model 1
linear cov</title>
<polygon fill="#cde8ef" stroke="#cde8ef" points="268,-347.542 212,-347.542 212,-306.542 268,-306.542 268,-347.542"/>
<text text-anchor="middle" x="240" y="-335.542" font-family="Times New Roman,serif" font-size="10.00">layer 6</text>
<text text-anchor="middle" x="240" y="-324.542" font-family="Times New Roman,serif" font-size="10.00">model 1</text>
<text text-anchor="middle" x="240" y="-313.542" font-family="Times New Roman,serif" font-size="10.00">linear cov</text>
</g>
<!-- layer 5
model 0
linear cov&#45;&gt;layer 6
model 1
linear cov -->
<g id="edge33" class="edge"><title>layer 5
model 0
linear cov&#45;&gt;layer 6
model 1
linear cov</title>
<path fill="none" stroke="#cde8ef" d="M174.06,-390.255C185.388,-379.567 199.511,-366.242 211.778,-354.669"/>
<polygon fill="#3499cd" stroke="#cde8ef" points="214.262,-357.137 219.134,-347.729 209.458,-352.046 214.262,-357.137"/>
</g>
<!-- layer 5
model 1
linear cov&#45;&gt;layer 6
model 1
linear cov -->
<g id="edge34" class="edge"><title>layer 5
model 1
linear cov&#45;&gt;layer 6
model 1
linear cov</title>
<path fill="none" stroke="#cde8ef" d="M240,-390.255C240,-380.576 240,-368.733 240,-357.988"/>
<polygon fill="#3499cd" stroke="#cde8ef" points="243.5,-357.729 240,-347.729 236.5,-357.729 243.5,-357.729"/>
</g>
<!-- layer 6
model 0
linear cov&#45;&gt;layer 7
model 0
linear cov -->
<g id="edge35" class="edge"><title>layer 6
model 0
linear cov&#45;&gt;layer 7
model 0
linear cov</title>
<path fill="none" stroke="#cde8ef" d="M122.196,-306.222C119.589,-297.318 116.458,-286.629 113.588,-276.825"/>
<polygon fill="#3499cd" stroke="#cde8ef" points="116.892,-275.654 110.722,-267.041 110.174,-277.622 116.892,-275.654"/>
</g>
<!-- layer 6
model 1
linear cov&#45;&gt;layer 7
model 1
linear cov -->
<g id="edge37" class="edge"><title>layer 6
model 1
linear cov&#45;&gt;layer 7
model 1
linear cov</title>
<path fill="none" stroke="#cde8ef" d="M231.42,-306.222C227.525,-297.224 222.841,-286.404 218.561,-276.516"/>
<polygon fill="#3499cd" stroke="#cde8ef" points="221.644,-274.828 214.459,-267.041 215.22,-277.608 221.644,-274.828"/>
</g>
<!-- layer 7
model 0
linear cov&#45;&gt;layer 8
model 1
linear cov -->
<g id="edge41" class="edge"><title>layer 7
model 0
linear cov&#45;&gt;layer 8
model 1
linear cov</title>
<path fill="none" stroke="#cde8ef" d="M105,-225.795C105,-217.957 105,-208.77 105,-200.16"/>
<polygon fill="#3499cd" stroke="#cde8ef" points="108.5,-200.074 105,-190.074 101.5,-200.074 108.5,-200.074"/>
</g>
<!-- layer 7
model 1
linear cov&#45;&gt;layer 8
model 0
linear cov -->
<g id="edge39" class="edge"><title>layer 7
model 1
linear cov&#45;&gt;layer 8
model 0
linear cov</title>
<path fill="none" stroke="#cde8ef" d="M206,-225.795C206,-217.957 206,-208.77 206,-200.16"/>
<polygon fill="#3499cd" stroke="#cde8ef" points="209.5,-200.074 206,-190.074 202.5,-200.074 209.5,-200.074"/>
</g>
<!-- layer 9
model 0
linear cov -->
<g id="node36" class="node"><title>layer 9
model 0
linear cov</title>
<polygon fill="#cde8ef" stroke="#cde8ef" points="183,-113 127,-113 127,-72 183,-72 183,-113"/>
<text text-anchor="middle" x="155" y="-101" font-family="Times New Roman,serif" font-size="10.00">layer 9</text>
<text text-anchor="middle" x="155" y="-90" font-family="Times New Roman,serif" font-size="10.00">model 0</text>
<text text-anchor="middle" x="155" y="-79" font-family="Times New Roman,serif" font-size="10.00">linear cov</text>
</g>
<!-- layer 8
model 0
linear cov&#45;&gt;layer 9
model 0
linear cov -->
<g id="edge43" class="edge"><title>layer 8
model 0
linear cov&#45;&gt;layer 9
model 0
linear cov</title>
<path fill="none" stroke="#cde8ef" d="M192.6,-148.795C186.92,-140.441 180.196,-130.553 174.016,-121.465"/>
<polygon fill="#3499cd" stroke="#cde8ef" points="176.828,-119.375 168.31,-113.074 171.039,-123.311 176.828,-119.375"/>
</g>
<!-- layer 8
model 1
linear cov&#45;&gt;layer 9
model 0
linear cov -->
<g id="edge44" class="edge"><title>layer 8
model 1
linear cov&#45;&gt;layer 9
model 0
linear cov</title>
<path fill="none" stroke="#cde8ef" d="M118.137,-148.795C123.706,-140.441 130.298,-130.553 136.356,-121.465"/>
<polygon fill="#3499cd" stroke="#cde8ef" points="139.316,-123.336 141.951,-113.074 133.492,-119.453 139.316,-123.336"/>
</g>
<!-- layer 9
model 0
linear cov&#45;&gt;OUTPUT -->
<g id="edge45" class="edge"><title>layer 9
model 0
linear cov&#45;&gt;OUTPUT</title>
<path fill="none" stroke="#cde8ef" d="M155,-71.6891C155,-63.9066 155,-54.8417 155,-46.4471"/>
<polygon fill="#3499cd" stroke="#cde8ef" points="158.5,-46.3194 155,-36.3195 151.5,-46.3195 158.5,-46.3194"/>
</g>
</g>
</svg>
