<?xml version="1.0" encoding="UTF-8" standalone="no"?>
<!DOCTYPE svg PUBLIC "-//W3C//DTD SVG 1.1//EN"
 "http://www.w3.org/Graphics/SVG/1.1/DTD/svg11.dtd">
<!-- Generated by graphviz version 2.38.0 (20140413.2041)
 -->
<!-- Title: %3 Pages: 1 -->
<svg width="470pt" height="337pt"
 viewBox="0.00 0.00 470.11 337.17" xmlns="http://www.w3.org/2000/svg" xmlns:xlink="http://www.w3.org/1999/xlink">
<g id="graph0" class="graph" transform="scale(1 1) rotate(0) translate(4 333.167)">
<title>%3</title>
<polygon fill="white" stroke="none" points="-4,4 -4,-333.167 466.108,-333.167 466.108,4 -4,4"/>
<text text-anchor="middle" x="231.054" y="-310.767" font-family="Times New Roman,serif" font-size="18.00">Multilayered group method of data handling model</text>
<text text-anchor="middle" x="231.054" y="-290.767" font-family="Times New Roman,serif" font-size="18.00"> </text>
<!-- OUTPUT -->
<g id="node1" class="node"><title>OUTPUT</title>
<ellipse fill="#ff9c34" stroke="#f89939" cx="120.054" cy="-18" rx="38.3335" ry="18"/>
<text text-anchor="middle" x="120.054" y="-14.9" font-family="Times New Roman,serif" font-size="12.00" fill="white">OUTPUT</text>
</g>
<!-- F0
sepal length (cm) -->
<g id="node2" class="node"><title>F0
sepal length (cm)</title>
<ellipse fill="#ff9c34" stroke="#f89939" cx="103.054" cy="-257.125" rx="65.5227" ry="24.0833"/>
<text text-anchor="middle" x="103.054" y="-260.525" font-family="Times New Roman,serif" font-size="12.00" fill="white">F0</text>
<text text-anchor="middle" x="103.054" y="-247.525" font-family="Times New Roman,serif" font-size="12.00" fill="white">sepal length (cm)</text>
</g>
<!-- layer 0
model 0
linear cov -->
<g id="node6" class="node"><title>layer 0
model 0
linear cov</title>
<polygon fill="#cde8ef" stroke="#cde8ef" points="204.054,-193.542 148.054,-193.542 148.054,-152.542 204.054,-152.542 204.054,-193.542"/>
<text text-anchor="middle" x="176.054" y="-181.542" font-family="Times New Roman,serif" font-size="10.00">layer 0</text>
<text text-anchor="middle" x="176.054" y="-170.542" font-family="Times New Roman,serif" font-size="10.00">model 0</text>
<text text-anchor="middle" x="176.054" y="-159.542" font-family="Times New Roman,serif" font-size="10.00">linear cov</text>
</g>
<!-- F0
sepal length (cm)&#45;&gt;layer 0
model 0
linear cov -->
<g id="edge1" class="edge"><title>F0
sepal length (cm)&#45;&gt;layer 0
model 0
linear cov</title>
<path fill="none" stroke="#cde8ef" d="M122.616,-234.128C131.656,-223.963 142.477,-211.796 152.01,-201.077"/>
<polygon fill="#3499cd" stroke="#cde8ef" points="154.65,-203.376 158.68,-193.577 149.419,-198.724 154.65,-203.376"/>
</g>
<!-- F1
sepal width (cm) -->
<g id="node3" class="node"><title>F1
sepal width (cm)</title>
<ellipse fill="#ff9c34" stroke="#f89939" cx="397.054" cy="-257.125" rx="65.1077" ry="24.0833"/>
<text text-anchor="middle" x="397.054" y="-260.525" font-family="Times New Roman,serif" font-size="12.00" fill="white">F1</text>
<text text-anchor="middle" x="397.054" y="-247.525" font-family="Times New Roman,serif" font-size="12.00" fill="white">sepal width (cm)</text>
</g>
<!-- F2
petal length (cm) -->
<g id="node4" class="node"><title>F2
petal length (cm)</title>
<ellipse fill="#ff9c34" stroke="#f89939" cx="65.0538" cy="-173.042" rx="65.1077" ry="24.0833"/>
<text text-anchor="middle" x="65.0538" y="-176.442" font-family="Times New Roman,serif" font-size="12.00" fill="white">F2</text>
<text text-anchor="middle" x="65.0538" y="-163.442" font-family="Times New Roman,serif" font-size="12.00" fill="white">petal length (cm)</text>
</g>
<!-- layer 1
model 0
linear cov -->
<g id="node7" class="node"><title>layer 1
model 0
linear cov</title>
<polygon fill="#cde8ef" stroke="#cde8ef" points="148.054,-113 92.0538,-113 92.0538,-72 148.054,-72 148.054,-113"/>
<text text-anchor="middle" x="120.054" y="-101" font-family="Times New Roman,serif" font-size="10.00">layer 1</text>
<text text-anchor="middle" x="120.054" y="-90" font-family="Times New Roman,serif" font-size="10.00">model 0</text>
<text text-anchor="middle" x="120.054" y="-79" font-family="Times New Roman,serif" font-size="10.00">linear cov</text>
</g>
<!-- F2
petal length (cm)&#45;&gt;layer 1
model 0
linear cov -->
<g id="edge4" class="edge"><title>F2
petal length (cm)&#45;&gt;layer 1
model 0
linear cov</title>
<path fill="none" stroke="#cde8ef" d="M80.9621,-149.324C87.0207,-140.672 93.9982,-130.708 100.366,-121.615"/>
<polygon fill="#3499cd" stroke="#cde8ef" points="103.366,-123.433 106.235,-113.234 97.6318,-119.417 103.366,-123.433"/>
</g>
<!-- F3
petal width (cm) -->
<g id="node5" class="node"><title>F3
petal width (cm)</title>
<ellipse fill="#ff9c34" stroke="#f89939" cx="250.054" cy="-257.125" rx="63.7795" ry="24.0833"/>
<text text-anchor="middle" x="250.054" y="-260.525" font-family="Times New Roman,serif" font-size="12.00" fill="white">F3</text>
<text text-anchor="middle" x="250.054" y="-247.525" font-family="Times New Roman,serif" font-size="12.00" fill="white">petal width (cm)</text>
</g>
<!-- F3
petal width (cm)&#45;&gt;layer 0
model 0
linear cov -->
<g id="edge2" class="edge"><title>F3
petal width (cm)&#45;&gt;layer 0
model 0
linear cov</title>
<path fill="none" stroke="#cde8ef" d="M230.223,-234.128C221.059,-223.963 210.09,-211.796 200.427,-201.077"/>
<polygon fill="#3499cd" stroke="#cde8ef" points="202.961,-198.661 193.666,-193.577 197.762,-203.348 202.961,-198.661"/>
</g>
<!-- layer 0
model 0
linear cov&#45;&gt;layer 1
model 0
linear cov -->
<g id="edge3" class="edge"><title>layer 0
model 0
linear cov&#45;&gt;layer 1
model 0
linear cov</title>
<path fill="none" stroke="#cde8ef" d="M161.923,-152.222C155.24,-142.849 147.147,-131.499 139.864,-121.285"/>
<polygon fill="#3499cd" stroke="#cde8ef" points="142.642,-119.151 133.986,-113.041 136.942,-123.215 142.642,-119.151"/>
</g>
<!-- layer 1
model 0
linear cov&#45;&gt;OUTPUT -->
<g id="edge5" class="edge"><title>layer 1
model 0
linear cov&#45;&gt;OUTPUT</title>
<path fill="none" stroke="#cde8ef" d="M120.054,-71.6891C120.054,-63.9066 120.054,-54.8417 120.054,-46.4471"/>
<polygon fill="#3499cd" stroke="#cde8ef" points="123.554,-46.3194 120.054,-36.3195 116.554,-46.3195 123.554,-46.3194"/>
</g>
</g>
</svg>
