<?xml version="1.0" encoding="UTF-8" standalone="no"?>
<!DOCTYPE svg PUBLIC "-//W3C//DTD SVG 1.1//EN"
 "http://www.w3.org/Graphics/SVG/1.1/DTD/svg11.dtd">
<!-- Generated by graphviz version 2.38.0 (20140413.2041)
 -->
<!-- Title: %3 Pages: 1 -->
<svg width="581pt" height="330pt"
 viewBox="0.00 0.00 581.11 330.08" xmlns="http://www.w3.org/2000/svg" xmlns:xlink="http://www.w3.org/1999/xlink">
<g id="graph0" class="graph" transform="scale(1 1) rotate(0) translate(4 326.083)">
<title>%3</title>
<polygon fill="white" stroke="none" points="-4,4 -4,-326.083 577.108,-326.083 577.108,4 -4,4"/>
<text text-anchor="middle" x="286.554" y="-303.683" font-family="Times New Roman,serif" font-size="18.00">Self&#45;organizing deep learning polynomial neural network</text>
<text text-anchor="middle" x="286.554" y="-283.683" font-family="Times New Roman,serif" font-size="18.00"> </text>
<!-- OUTPUT -->
<g id="node1" class="node"><title>OUTPUT</title>
<ellipse fill="#ff9c34" stroke="#f89939" cx="214.054" cy="-18" rx="38.3335" ry="18"/>
<text text-anchor="middle" x="214.054" y="-14.9" font-family="Times New Roman,serif" font-size="12.00" fill="white">OUTPUT</text>
</g>
<!-- F0
sepal length (cm) -->
<g id="node2" class="node"><title>F0
sepal length (cm)</title>
<ellipse fill="#ff9c34" stroke="#f89939" cx="214.054" cy="-250.042" rx="65.5227" ry="24.0833"/>
<text text-anchor="middle" x="214.054" y="-253.442" font-family="Times New Roman,serif" font-size="12.00" fill="white">F0</text>
<text text-anchor="middle" x="214.054" y="-240.442" font-family="Times New Roman,serif" font-size="12.00" fill="white">sepal length (cm)</text>
</g>
<!-- layer 0
neuron 0
linear cov -->
<g id="node6" class="node"><title>layer 0
neuron 0
linear cov</title>
<polygon fill="#cde8ef" stroke="#cde8ef" points="205.054,-190 149.054,-190 149.054,-149 205.054,-149 205.054,-190"/>
<text text-anchor="middle" x="177.054" y="-178" font-family="Times New Roman,serif" font-size="10.00">layer 0</text>
<text text-anchor="middle" x="177.054" y="-167" font-family="Times New Roman,serif" font-size="10.00">neuron 0</text>
<text text-anchor="middle" x="177.054" y="-156" font-family="Times New Roman,serif" font-size="10.00">linear cov</text>
</g>
<!-- F0
sepal length (cm)&#45;&gt;layer 0
neuron 0
linear cov -->
<g id="edge1" class="edge"><title>F0
sepal length (cm)&#45;&gt;layer 0
neuron 0
linear cov</title>
<path fill="none" stroke="#cde8ef" d="M203.153,-225.901C199.208,-217.527 194.705,-207.969 190.563,-199.176"/>
<polygon fill="#3499cd" stroke="#cde8ef" points="193.681,-197.583 186.253,-190.028 187.349,-200.566 193.681,-197.583"/>
</g>
<!-- layer 0
neuron 1
linear cov -->
<g id="node7" class="node"><title>layer 0
neuron 1
linear cov</title>
<polygon fill="#cde8ef" stroke="#cde8ef" points="279.054,-190 223.054,-190 223.054,-149 279.054,-149 279.054,-190"/>
<text text-anchor="middle" x="251.054" y="-178" font-family="Times New Roman,serif" font-size="10.00">layer 0</text>
<text text-anchor="middle" x="251.054" y="-167" font-family="Times New Roman,serif" font-size="10.00">neuron 1</text>
<text text-anchor="middle" x="251.054" y="-156" font-family="Times New Roman,serif" font-size="10.00">linear cov</text>
</g>
<!-- F0
sepal length (cm)&#45;&gt;layer 0
neuron 1
linear cov -->
<g id="edge3" class="edge"><title>F0
sepal length (cm)&#45;&gt;layer 0
neuron 1
linear cov</title>
<path fill="none" stroke="#cde8ef" d="M224.955,-225.901C228.9,-217.527 233.403,-207.969 237.545,-199.176"/>
<polygon fill="#3499cd" stroke="#cde8ef" points="240.759,-200.566 241.854,-190.028 234.426,-197.583 240.759,-200.566"/>
</g>
<!-- F1
sepal width (cm) -->
<g id="node3" class="node"><title>F1
sepal width (cm)</title>
<ellipse fill="#ff9c34" stroke="#f89939" cx="508.054" cy="-250.042" rx="65.1077" ry="24.0833"/>
<text text-anchor="middle" x="508.054" y="-253.442" font-family="Times New Roman,serif" font-size="12.00" fill="white">F1</text>
<text text-anchor="middle" x="508.054" y="-240.442" font-family="Times New Roman,serif" font-size="12.00" fill="white">sepal width (cm)</text>
</g>
<!-- F2
petal length (cm) -->
<g id="node4" class="node"><title>F2
petal length (cm)</title>
<ellipse fill="#ff9c34" stroke="#f89939" cx="65.0538" cy="-250.042" rx="65.1077" ry="24.0833"/>
<text text-anchor="middle" x="65.0538" y="-253.442" font-family="Times New Roman,serif" font-size="12.00" fill="white">F2</text>
<text text-anchor="middle" x="65.0538" y="-240.442" font-family="Times New Roman,serif" font-size="12.00" fill="white">petal length (cm)</text>
</g>
<!-- F2
petal length (cm)&#45;&gt;layer 0
neuron 0
linear cov -->
<g id="edge2" class="edge"><title>F2
petal length (cm)&#45;&gt;layer 0
neuron 0
linear cov</title>
<path fill="none" stroke="#cde8ef" d="M94.4805,-228.406C108.567,-218.527 125.574,-206.601 140.483,-196.146"/>
<polygon fill="#3499cd" stroke="#cde8ef" points="142.803,-198.794 148.981,-190.186 138.784,-193.062 142.803,-198.794"/>
</g>
<!-- F3
petal width (cm) -->
<g id="node5" class="node"><title>F3
petal width (cm)</title>
<ellipse fill="#ff9c34" stroke="#f89939" cx="361.054" cy="-250.042" rx="63.7795" ry="24.0833"/>
<text text-anchor="middle" x="361.054" y="-253.442" font-family="Times New Roman,serif" font-size="12.00" fill="white">F3</text>
<text text-anchor="middle" x="361.054" y="-240.442" font-family="Times New Roman,serif" font-size="12.00" fill="white">petal width (cm)</text>
</g>
<!-- F3
petal width (cm)&#45;&gt;layer 0
neuron 1
linear cov -->
<g id="edge4" class="edge"><title>F3
petal width (cm)&#45;&gt;layer 0
neuron 1
linear cov</title>
<path fill="none" stroke="#cde8ef" d="M332.153,-228.406C318.318,-218.527 301.615,-206.601 286.972,-196.146"/>
<polygon fill="#3499cd" stroke="#cde8ef" points="288.797,-193.149 278.625,-190.186 284.73,-198.846 288.797,-193.149"/>
</g>
<!-- layer 1
neuron 0
linear cov -->
<g id="node8" class="node"><title>layer 1
neuron 0
linear cov</title>
<polygon fill="#cde8ef" stroke="#cde8ef" points="242.054,-113 186.054,-113 186.054,-72 242.054,-72 242.054,-113"/>
<text text-anchor="middle" x="214.054" y="-101" font-family="Times New Roman,serif" font-size="10.00">layer 1</text>
<text text-anchor="middle" x="214.054" y="-90" font-family="Times New Roman,serif" font-size="10.00">neuron 0</text>
<text text-anchor="middle" x="214.054" y="-79" font-family="Times New Roman,serif" font-size="10.00">linear cov</text>
</g>
<!-- layer 0
neuron 0
linear cov&#45;&gt;layer 1
neuron 0
linear cov -->
<g id="edge5" class="edge"><title>layer 0
neuron 0
linear cov&#45;&gt;layer 1
neuron 0
linear cov</title>
<path fill="none" stroke="#cde8ef" d="M186.775,-148.795C190.769,-140.699 195.473,-131.163 199.841,-122.311"/>
<polygon fill="#3499cd" stroke="#cde8ef" points="203.112,-123.59 204.397,-113.074 196.834,-120.493 203.112,-123.59"/>
</g>
<!-- layer 0
neuron 1
linear cov&#45;&gt;layer 1
neuron 0
linear cov -->
<g id="edge6" class="edge"><title>layer 0
neuron 1
linear cov&#45;&gt;layer 1
neuron 0
linear cov</title>
<path fill="none" stroke="#cde8ef" d="M241.333,-148.795C237.339,-140.699 232.634,-131.163 228.267,-122.311"/>
<polygon fill="#3499cd" stroke="#cde8ef" points="231.273,-120.493 223.71,-113.074 224.996,-123.59 231.273,-120.493"/>
</g>
<!-- layer 1
neuron 0
linear cov&#45;&gt;OUTPUT -->
<g id="edge7" class="edge"><title>layer 1
neuron 0
linear cov&#45;&gt;OUTPUT</title>
<path fill="none" stroke="#cde8ef" d="M214.054,-71.6891C214.054,-63.9066 214.054,-54.8417 214.054,-46.4471"/>
<polygon fill="#3499cd" stroke="#cde8ef" points="217.554,-46.3194 214.054,-36.3195 210.554,-46.3195 217.554,-46.3194"/>
</g>
</g>
</svg>
