<?xml version="1.0" encoding="UTF-8" standalone="no"?>
<!DOCTYPE svg PUBLIC "-//W3C//DTD SVG 1.1//EN"
 "http://www.w3.org/Graphics/SVG/1.1/DTD/svg11.dtd">
<!-- Generated by graphviz version 2.38.0 (20140413.2041)
 -->
<!-- Title: %3 Pages: 1 -->
<svg width="391pt" height="318pt"
 viewBox="0.00 0.00 391.00 318.00" xmlns="http://www.w3.org/2000/svg" xmlns:xlink="http://www.w3.org/1999/xlink">
<g id="graph0" class="graph" transform="scale(1 1) rotate(0) translate(4 314)">
<title>%3</title>
<polygon fill="white" stroke="none" points="-4,4 -4,-314 387,-314 387,4 -4,4"/>
<text text-anchor="middle" x="191.5" y="-291.6" font-family="Times New Roman,serif" font-size="18.00">Multilayered group method of data handling model</text>
<text text-anchor="middle" x="191.5" y="-271.6" font-family="Times New Roman,serif" font-size="18.00"> </text>
<!-- OUTPUT -->
<g id="node1" class="node"><title>OUTPUT</title>
<ellipse fill="#ff9c34" stroke="#f89939" cx="155.5" cy="-18" rx="38.3335" ry="18"/>
<text text-anchor="middle" x="155.5" y="-14.9" font-family="Times New Roman,serif" font-size="12.00" fill="white">OUTPUT</text>
</g>
<!-- F0 -->
<g id="node2" class="node"><title>F0</title>
<ellipse fill="#ff9c34" stroke="#f89939" cx="155.5" cy="-244" rx="27" ry="18"/>
<text text-anchor="middle" x="155.5" y="-240.9" font-family="Times New Roman,serif" font-size="12.00" fill="white">F0</text>
</g>
<!-- layer 0
model 0
linear cov -->
<g id="node6" class="node"><title>layer 0
model 0
linear cov</title>
<polygon fill="#cde8ef" stroke="#cde8ef" points="146.5,-190 90.5,-190 90.5,-149 146.5,-149 146.5,-190"/>
<text text-anchor="middle" x="118.5" y="-178" font-family="Times New Roman,serif" font-size="10.00">layer 0</text>
<text text-anchor="middle" x="118.5" y="-167" font-family="Times New Roman,serif" font-size="10.00">model 0</text>
<text text-anchor="middle" x="118.5" y="-156" font-family="Times New Roman,serif" font-size="10.00">linear cov</text>
</g>
<!-- F0&#45;&gt;layer 0
model 0
linear cov -->
<g id="edge1" class="edge"><title>F0&#45;&gt;layer 0
model 0
linear cov</title>
<path fill="none" stroke="#cde8ef" d="M147.104,-226.549C142.978,-218.465 137.886,-208.485 133.146,-199.198"/>
<polygon fill="#3499cd" stroke="#cde8ef" points="136.236,-197.554 128.573,-190.238 130.001,-200.736 136.236,-197.554"/>
</g>
<!-- layer 0
model 1
linear cov -->
<g id="node7" class="node"><title>layer 0
model 1
linear cov</title>
<polygon fill="#cde8ef" stroke="#cde8ef" points="220.5,-190 164.5,-190 164.5,-149 220.5,-149 220.5,-190"/>
<text text-anchor="middle" x="192.5" y="-178" font-family="Times New Roman,serif" font-size="10.00">layer 0</text>
<text text-anchor="middle" x="192.5" y="-167" font-family="Times New Roman,serif" font-size="10.00">model 1</text>
<text text-anchor="middle" x="192.5" y="-156" font-family="Times New Roman,serif" font-size="10.00">linear cov</text>
</g>
<!-- F0&#45;&gt;layer 0
model 1
linear cov -->
<g id="edge3" class="edge"><title>F0&#45;&gt;layer 0
model 1
linear cov</title>
<path fill="none" stroke="#cde8ef" d="M163.896,-226.549C168.022,-218.465 173.114,-208.485 177.854,-199.198"/>
<polygon fill="#3499cd" stroke="#cde8ef" points="180.999,-200.736 182.427,-190.238 174.764,-197.554 180.999,-200.736"/>
</g>
<!-- F1 -->
<g id="node3" class="node"><title>F1</title>
<ellipse fill="#ff9c34" stroke="#f89939" cx="299.5" cy="-244" rx="27" ry="18"/>
<text text-anchor="middle" x="299.5" y="-240.9" font-family="Times New Roman,serif" font-size="12.00" fill="white">F1</text>
</g>
<!-- F2 -->
<g id="node4" class="node"><title>F2</title>
<ellipse fill="#ff9c34" stroke="#f89939" cx="83.5" cy="-244" rx="27" ry="18"/>
<text text-anchor="middle" x="83.5" y="-240.9" font-family="Times New Roman,serif" font-size="12.00" fill="white">F2</text>
</g>
<!-- F2&#45;&gt;layer 0
model 0
linear cov -->
<g id="edge2" class="edge"><title>F2&#45;&gt;layer 0
model 0
linear cov</title>
<path fill="none" stroke="#cde8ef" d="M91.442,-226.549C95.3041,-218.549 100.062,-208.693 104.505,-199.489"/>
<polygon fill="#3499cd" stroke="#cde8ef" points="107.776,-200.765 108.971,-190.238 101.472,-197.721 107.776,-200.765"/>
</g>
<!-- F3 -->
<g id="node5" class="node"><title>F3</title>
<ellipse fill="#ff9c34" stroke="#f89939" cx="227.5" cy="-244" rx="27" ry="18"/>
<text text-anchor="middle" x="227.5" y="-240.9" font-family="Times New Roman,serif" font-size="12.00" fill="white">F3</text>
</g>
<!-- F3&#45;&gt;layer 0
model 1
linear cov -->
<g id="edge4" class="edge"><title>F3&#45;&gt;layer 0
model 1
linear cov</title>
<path fill="none" stroke="#cde8ef" d="M219.558,-226.549C215.696,-218.549 210.938,-208.693 206.495,-199.489"/>
<polygon fill="#3499cd" stroke="#cde8ef" points="209.528,-197.721 202.029,-190.238 203.224,-200.765 209.528,-197.721"/>
</g>
<!-- layer 1
model 0
linear cov -->
<g id="node8" class="node"><title>layer 1
model 0
linear cov</title>
<polygon fill="#cde8ef" stroke="#cde8ef" points="183.5,-113 127.5,-113 127.5,-72 183.5,-72 183.5,-113"/>
<text text-anchor="middle" x="155.5" y="-101" font-family="Times New Roman,serif" font-size="10.00">layer 1</text>
<text text-anchor="middle" x="155.5" y="-90" font-family="Times New Roman,serif" font-size="10.00">model 0</text>
<text text-anchor="middle" x="155.5" y="-79" font-family="Times New Roman,serif" font-size="10.00">linear cov</text>
</g>
<!-- layer 0
model 0
linear cov&#45;&gt;layer 1
model 0
linear cov -->
<g id="edge5" class="edge"><title>layer 0
model 0
linear cov&#45;&gt;layer 1
model 0
linear cov</title>
<path fill="none" stroke="#cde8ef" d="M128.221,-148.795C132.215,-140.699 136.92,-131.163 141.287,-122.311"/>
<polygon fill="#3499cd" stroke="#cde8ef" points="144.558,-123.59 145.844,-113.074 138.28,-120.493 144.558,-123.59"/>
</g>
<!-- layer 0
model 1
linear cov&#45;&gt;layer 1
model 0
linear cov -->
<g id="edge6" class="edge"><title>layer 0
model 1
linear cov&#45;&gt;layer 1
model 0
linear cov</title>
<path fill="none" stroke="#cde8ef" d="M182.779,-148.795C178.785,-140.699 174.08,-131.163 169.713,-122.311"/>
<polygon fill="#3499cd" stroke="#cde8ef" points="172.72,-120.493 165.156,-113.074 166.442,-123.59 172.72,-120.493"/>
</g>
<!-- layer 1
model 0
linear cov&#45;&gt;OUTPUT -->
<g id="edge7" class="edge"><title>layer 1
model 0
linear cov&#45;&gt;OUTPUT</title>
<path fill="none" stroke="#cde8ef" d="M155.5,-71.6891C155.5,-63.9066 155.5,-54.8417 155.5,-46.4471"/>
<polygon fill="#3499cd" stroke="#cde8ef" points="159,-46.3194 155.5,-36.3195 152,-46.3195 159,-46.3194"/>
</g>
</g>
</svg>
