<?xml version="1.0" encoding="UTF-8" standalone="no"?>
<!DOCTYPE svg PUBLIC "-//W3C//DTD SVG 1.1//EN"
 "http://www.w3.org/Graphics/SVG/1.1/DTD/svg11.dtd">
<!-- Generated by graphviz version 14.1.5 (20260411.2331)
 -->
<!-- Pages: 1 -->
<svg width="495pt" height="555pt"
 viewBox="0.00 0.00 495.00 555.00" xmlns="http://www.w3.org/2000/svg" xmlns:xlink="http://www.w3.org/1999/xlink">
<g id="graph0" class="graph" transform="scale(1 1) rotate(0) translate(4 550.75)">
<polygon fill="white" stroke="none" points="-4,4 -4,-550.75 491,-550.75 491,4 -4,4"/>
<text xml:space="preserve" text-anchor="middle" x="243.5" y="-525.65" font-family="Times New Roman,serif" font-size="18.00">Self&#45;organizing deep learning polynomial neural network</text>
<text xml:space="preserve" text-anchor="middle" x="243.5" y="-504.65" font-family="Times New Roman,serif" font-size="18.00"> </text>
<!-- OUTPUT -->
<g id="node1" class="node">
<title>OUTPUT</title>
<ellipse fill="#ff9c34" stroke="#f89939" cx="63" cy="-18" rx="41.18" ry="18"/>
<text xml:space="preserve" text-anchor="middle" x="63" y="-13.72" font-family="Times New Roman,serif" font-size="12.00" fill="white">OUTPUT</text>
</g>
<!-- F0 -->
<g id="node2" class="node">
<title>F0</title>
<ellipse fill="#ff9c34" stroke="#f89939" cx="135" cy="-403.88" rx="27" ry="18"/>
<text xml:space="preserve" text-anchor="middle" x="135" y="-399.6" font-family="Times New Roman,serif" font-size="12.00" fill="white">F0</text>
</g>
<!-- layer 1
neuron 0
linear cov -->
<g id="node12" class="node">
<title>layer 1
neuron 0
linear cov</title>
<polygon fill="#cde8ef" stroke="#cde8ef" points="200.25,-347 143.75,-347 143.75,-305.25 200.25,-305.25 200.25,-347"/>
<text xml:space="preserve" text-anchor="middle" x="172" y="-333.5" font-family="Times New Roman,serif" font-size="10.00">layer 1</text>
<text xml:space="preserve" text-anchor="middle" x="172" y="-322.25" font-family="Times New Roman,serif" font-size="10.00">neuron 0</text>
<text xml:space="preserve" text-anchor="middle" x="172" y="-311" font-family="Times New Roman,serif" font-size="10.00">linear cov</text>
</g>
<!-- F0&#45;&gt;layer 1
neuron 0
linear cov -->
<g id="edge4" class="edge">
<title>F0&#45;&gt;layer 1
neuron 0
linear cov</title>
<path fill="none" stroke="#cde8ef" d="M143.03,-386.44C147.15,-378 152.3,-367.45 157.12,-357.59"/>
<polygon fill="#3499cd" stroke="#cde8ef" points="160.23,-359.19 161.48,-348.67 153.94,-356.12 160.23,-359.19"/>
</g>
<!-- F1 -->
<g id="node3" class="node">
<title>F1</title>
<ellipse fill="#ff9c34" stroke="#f89939" cx="63" cy="-248.38" rx="27" ry="18"/>
<text xml:space="preserve" text-anchor="middle" x="63" y="-244.1" font-family="Times New Roman,serif" font-size="12.00" fill="white">F1</text>
</g>
<!-- layer 3
neuron 0
linear cov -->
<g id="node14" class="node">
<title>layer 3
neuron 0
linear cov</title>
<polygon fill="#cde8ef" stroke="#cde8ef" points="128.25,-191.5 71.75,-191.5 71.75,-149.75 128.25,-149.75 128.25,-191.5"/>
<text xml:space="preserve" text-anchor="middle" x="100" y="-178" font-family="Times New Roman,serif" font-size="10.00">layer 3</text>
<text xml:space="preserve" text-anchor="middle" x="100" y="-166.75" font-family="Times New Roman,serif" font-size="10.00">neuron 0</text>
<text xml:space="preserve" text-anchor="middle" x="100" y="-155.5" font-family="Times New Roman,serif" font-size="10.00">linear cov</text>
</g>
<!-- F1&#45;&gt;layer 3
neuron 0
linear cov -->
<g id="edge8" class="edge">
<title>F1&#45;&gt;layer 3
neuron 0
linear cov</title>
<path fill="none" stroke="#cde8ef" d="M71.03,-230.94C75.15,-222.5 80.3,-211.95 85.12,-202.09"/>
<polygon fill="#3499cd" stroke="#cde8ef" points="88.23,-203.69 89.48,-193.17 81.94,-200.62 88.23,-203.69"/>
</g>
<!-- F2 -->
<g id="node4" class="node">
<title>F2</title>
<ellipse fill="#ff9c34" stroke="#f89939" cx="316" cy="-478.75" rx="27" ry="18"/>
<text xml:space="preserve" text-anchor="middle" x="316" y="-474.48" font-family="Times New Roman,serif" font-size="12.00" fill="white">F2</text>
</g>
<!-- F3 -->
<g id="node5" class="node">
<title>F3</title>
<ellipse fill="#ff9c34" stroke="#f89939" cx="388" cy="-478.75" rx="27" ry="18"/>
<text xml:space="preserve" text-anchor="middle" x="388" y="-474.48" font-family="Times New Roman,serif" font-size="12.00" fill="white">F3</text>
</g>
<!-- F4 -->
<g id="node6" class="node">
<title>F4</title>
<ellipse fill="#ff9c34" stroke="#f89939" cx="27" cy="-170.62" rx="27" ry="18"/>
<text xml:space="preserve" text-anchor="middle" x="27" y="-166.35" font-family="Times New Roman,serif" font-size="12.00" fill="white">F4</text>
</g>
<!-- layer 4
neuron 0
linear cov -->
<g id="node15" class="node">
<title>layer 4
neuron 0
linear cov</title>
<polygon fill="#cde8ef" stroke="#cde8ef" points="91.25,-113.75 34.75,-113.75 34.75,-72 91.25,-72 91.25,-113.75"/>
<text xml:space="preserve" text-anchor="middle" x="63" y="-100.25" font-family="Times New Roman,serif" font-size="10.00">layer 4</text>
<text xml:space="preserve" text-anchor="middle" x="63" y="-89" font-family="Times New Roman,serif" font-size="10.00">neuron 0</text>
<text xml:space="preserve" text-anchor="middle" x="63" y="-77.75" font-family="Times New Roman,serif" font-size="10.00">linear cov</text>
</g>
<!-- F4&#45;&gt;layer 4
neuron 0
linear cov -->
<g id="edge10" class="edge">
<title>F4&#45;&gt;layer 4
neuron 0
linear cov</title>
<path fill="none" stroke="#cde8ef" d="M34.81,-153.19C38.82,-144.75 43.84,-134.2 48.52,-124.34"/>
<polygon fill="#3499cd" stroke="#cde8ef" points="51.63,-125.96 52.76,-115.42 45.31,-122.95 51.63,-125.96"/>
</g>
<!-- F5 -->
<g id="node7" class="node">
<title>F5</title>
<ellipse fill="#ff9c34" stroke="#f89939" cx="172" cy="-478.75" rx="27" ry="18"/>
<text xml:space="preserve" text-anchor="middle" x="172" y="-474.48" font-family="Times New Roman,serif" font-size="12.00" fill="white">F5</text>
</g>
<!-- layer 0
neuron 0
linear cov -->
<g id="node11" class="node">
<title>layer 0
neuron 0
linear cov</title>
<polygon fill="#cde8ef" stroke="#cde8ef" points="236.25,-424.75 179.75,-424.75 179.75,-383 236.25,-383 236.25,-424.75"/>
<text xml:space="preserve" text-anchor="middle" x="208" y="-411.25" font-family="Times New Roman,serif" font-size="10.00">layer 0</text>
<text xml:space="preserve" text-anchor="middle" x="208" y="-400" font-family="Times New Roman,serif" font-size="10.00">neuron 0</text>
<text xml:space="preserve" text-anchor="middle" x="208" y="-388.75" font-family="Times New Roman,serif" font-size="10.00">linear cov</text>
</g>
<!-- F5&#45;&gt;layer 0
neuron 0
linear cov -->
<g id="edge1" class="edge">
<title>F5&#45;&gt;layer 0
neuron 0
linear cov</title>
<path fill="none" stroke="#cde8ef" d="M180.17,-461.21C183.96,-453.55 188.58,-444.18 192.96,-435.31"/>
<polygon fill="#3499cd" stroke="#cde8ef" points="195.97,-437.12 197.26,-426.61 189.7,-434.02 195.97,-437.12"/>
</g>
<!-- F6 -->
<g id="node8" class="node">
<title>F6</title>
<ellipse fill="#ff9c34" stroke="#f89939" cx="99" cy="-326.12" rx="27" ry="18"/>
<text xml:space="preserve" text-anchor="middle" x="99" y="-321.85" font-family="Times New Roman,serif" font-size="12.00" fill="white">F6</text>
</g>
<!-- layer 2
neuron 0
linear cov -->
<g id="node13" class="node">
<title>layer 2
neuron 0
linear cov</title>
<polygon fill="#cde8ef" stroke="#cde8ef" points="164.25,-269.25 107.75,-269.25 107.75,-227.5 164.25,-227.5 164.25,-269.25"/>
<text xml:space="preserve" text-anchor="middle" x="136" y="-255.75" font-family="Times New Roman,serif" font-size="10.00">layer 2</text>
<text xml:space="preserve" text-anchor="middle" x="136" y="-244.5" font-family="Times New Roman,serif" font-size="10.00">neuron 0</text>
<text xml:space="preserve" text-anchor="middle" x="136" y="-233.25" font-family="Times New Roman,serif" font-size="10.00">linear cov</text>
</g>
<!-- F6&#45;&gt;layer 2
neuron 0
linear cov -->
<g id="edge6" class="edge">
<title>F6&#45;&gt;layer 2
neuron 0
linear cov</title>
<path fill="none" stroke="#cde8ef" d="M107.03,-308.69C111.15,-300.25 116.3,-289.7 121.12,-279.84"/>
<polygon fill="#3499cd" stroke="#cde8ef" points="124.23,-281.44 125.48,-270.92 117.94,-278.37 124.23,-281.44"/>
</g>
<!-- F7 -->
<g id="node9" class="node">
<title>F7</title>
<ellipse fill="#ff9c34" stroke="#f89939" cx="244" cy="-478.75" rx="27" ry="18"/>
<text xml:space="preserve" text-anchor="middle" x="244" y="-474.48" font-family="Times New Roman,serif" font-size="12.00" fill="white">F7</text>
</g>
<!-- F7&#45;&gt;layer 0
neuron 0
linear cov -->
<g id="edge2" class="edge">
<title>F7&#45;&gt;layer 0
neuron 0
linear cov</title>
<path fill="none" stroke="#cde8ef" d="M235.83,-461.21C232.04,-453.55 227.42,-444.18 223.04,-435.31"/>
<polygon fill="#3499cd" stroke="#cde8ef" points="226.3,-434.02 218.74,-426.61 220.03,-437.12 226.3,-434.02"/>
</g>
<!-- F8 -->
<g id="node10" class="node">
<title>F8</title>
<ellipse fill="#ff9c34" stroke="#f89939" cx="460" cy="-478.75" rx="27" ry="18"/>
<text xml:space="preserve" text-anchor="middle" x="460" y="-474.48" font-family="Times New Roman,serif" font-size="12.00" fill="white">F8</text>
</g>
<!-- layer 0
neuron 0
linear cov&#45;&gt;layer 1
neuron 0
linear cov -->
<g id="edge3" class="edge">
<title>layer 0
neuron 0
linear cov&#45;&gt;layer 1
neuron 0
linear cov</title>
<path fill="none" stroke="#cde8ef" d="M198.35,-382.58C194.72,-374.93 190.51,-366.07 186.53,-357.69"/>
<polygon fill="#3499cd" stroke="#cde8ef" points="189.78,-356.38 182.32,-348.85 183.45,-359.38 189.78,-356.38"/>
</g>
<!-- layer 1
neuron 0
linear cov&#45;&gt;layer 2
neuron 0
linear cov -->
<g id="edge5" class="edge">
<title>layer 1
neuron 0
linear cov&#45;&gt;layer 2
neuron 0
linear cov</title>
<path fill="none" stroke="#cde8ef" d="M162.35,-304.83C158.72,-297.18 154.51,-288.32 150.53,-279.94"/>
<polygon fill="#3499cd" stroke="#cde8ef" points="153.78,-278.63 146.32,-271.1 147.45,-281.63 153.78,-278.63"/>
</g>
<!-- layer 2
neuron 0
linear cov&#45;&gt;layer 3
neuron 0
linear cov -->
<g id="edge7" class="edge">
<title>layer 2
neuron 0
linear cov&#45;&gt;layer 3
neuron 0
linear cov</title>
<path fill="none" stroke="#cde8ef" d="M126.35,-227.08C122.72,-219.43 118.51,-210.57 114.53,-202.19"/>
<polygon fill="#3499cd" stroke="#cde8ef" points="117.78,-200.88 110.32,-193.35 111.45,-203.88 117.78,-200.88"/>
</g>
<!-- layer 3
neuron 0
linear cov&#45;&gt;layer 4
neuron 0
linear cov -->
<g id="edge9" class="edge">
<title>layer 3
neuron 0
linear cov&#45;&gt;layer 4
neuron 0
linear cov</title>
<path fill="none" stroke="#cde8ef" d="M90.08,-149.33C86.35,-141.68 82.02,-132.82 77.93,-124.44"/>
<polygon fill="#3499cd" stroke="#cde8ef" points="81.14,-123.04 73.61,-115.59 74.85,-126.11 81.14,-123.04"/>
</g>
<!-- layer 4
neuron 0
linear cov&#45;&gt;OUTPUT -->
<g id="edge11" class="edge">
<title>layer 4
neuron 0
linear cov&#45;&gt;OUTPUT</title>
<path fill="none" stroke="#cde8ef" d="M63,-71.58C63,-64.19 63,-55.7 63,-47.73"/>
<polygon fill="#3499cd" stroke="#cde8ef" points="66.5,-47.74 63,-37.74 59.5,-47.74 66.5,-47.74"/>
</g>
</g>
</svg>
